<?xml version="1.0" standalone="no"?>
<!DOCTYPE svg PUBLIC "-//W3C//DTD SVG 1.1//EN" "http://www.w3.org/Graphics/SVG/1.1/DTD/svg11.dtd">
<svg xmlns="http://www.w3.org/2000/svg" xmlns:xlink="http://www.w3.org/1999/xlink" xmlns:serif="http://www.serif.com/" width="827" height="296" viewBox="0 0 827 296" version="1.1" xml:space="preserve" style="fill-rule:evenodd;clip-rule:evenodd;stroke-linejoin:round;stroke-miterlimit:2;"><path d="M49.875,185.917l13.833,0c1.083,0 1.833,-1.083 1.417,-2.083c-1.958,-4.792 -4.625,-13.917 -2,-24.333c3.75,-15 17.917,-30.25 36.875,-29.625c17.792,0.583 31.083,14.917 34.417,29.792c2.458,10.875 -0.875,20.208 -3.083,24.875c-0.458,1 0.292,2.167 1.375,2.167l13.583,0c0.667,0 1.292,-0.417 1.458,-1.083c1.583,-5.542 3.958,-17.292 0.125,-31.333c-4.083,-15.083 -13.042,-24.25 -16.875,-27.792c-3.292,-2.542 -14.75,-10.667 -31.042,-10c-3.583,0.167 -15.375,0.833 -26.25,9.542c-5.083,4.083 -8.333,8.583 -10.333,11.958c-0.25,0.417 -0.875,0.208 -0.875,-0.25l0.667,-71.583c0,-0.833 -0.667,-1.542 -1.542,-1.542l-11.792,0c-0.833,0 -1.542,0.667 -1.542,1.542l0,118.292c0,0.833 0.708,1.542 1.583,1.542l0,-0.083Z" style="fill-rule:nonzero;"/><path d="M249.542,175.792c0.917,-3.875 4.208,-19.75 -4.833,-35.375c-9.083,-15.708 -26.583,-24.083 -43.625,-23.458c-18.167,0.708 -32.625,11.583 -39.875,23.458c-5.542,9 -6.667,18.208 -7.167,22.667c-1.083,9.625 0.292,17.625 1.667,22.833c0.167,0.667 0.792,1.083 1.458,1.083l9.833,0c1.083,0 2.667,0.292 3.292,-0.875c0.417,-0.75 0,-1.417 -0.292,-2.125c-0.375,-0.833 -0.667,-1.708 -0.875,-2.583c-0.625,-2.458 -0.583,-4.542 -0.5,-5.917c27,0.125 53.958,0.208 80.917,0.292Zm-72.167,-34.792c9.125,-10.875 21.958,-11.917 24.292,-12.042c1.458,-0.083 17.75,-0.75 27.417,12.042c6,7.958 6.125,16.583 6.042,19.542l-65.5,0.167c0.208,-3.167 1.167,-11.792 7.75,-19.708Z" style="fill-rule:nonzero;"/><path d="M264.25,65.333l11.208,0c0.833,0 1.542,0.667 1.542,1.542l0,118.292c0,0.833 -0.708,1.542 -1.583,1.542l-10.958,0c-0.833,0 -1.542,-0.667 -1.542,-1.542l-0.208,-118.292c0,-0.833 0.667,-1.542 1.542,-1.542Z" style="fill-rule:nonzero;"/><path d="M289.833,82.75l10.792,-0.083c0.833,0 1.542,0.667 1.542,1.542l0,12.083c0.042,1.417 1.75,2.083 2.708,1.042c1.75,-2 4,-4.25 6.75,-6.458c3.875,-3.083 9.875,-7.917 19.083,-9.5c8.292,-1.458 14.833,0.5 18.667,1.708c11.542,3.583 17.375,10.583 18.375,12.917c0.708,1.667 1.125,3.375 1.125,3.375c0.125,0.542 0.208,1.042 0.292,1.583c0,0.25 0.083,0.458 0.083,0.708c0,0.25 0,0.625 0.333,0.625c0.25,0 0.375,-0.375 0.542,-0.583c0.5,-0.625 1.042,-1.25 1.5,-1.917c0.458,-0.667 1.333,-1.792 3.042,-3.833c0.125,-0.125 0.25,-0.333 0.458,-0.583c0.792,-1 5.125,-6.292 12.125,-9.875c7.208,-3.708 13.875,-3.958 18.625,-4.083c5.083,-0.167 11.125,-0.375 18.25,2.625c2.5,1.042 9.917,4.292 15.083,12.042c2.708,4.083 3.833,8 4.708,11.042c1.333,4.667 1.792,8.708 1.917,11.667l0,65.792c0,0.833 -0.708,1.542 -1.542,1.542l-10.375,-0.125c-0.833,0 -1.5,-0.708 -1.5,-1.542l0.125,-66.625c-0.375,-2.458 -1.208,-6.458 -3.667,-10.708c-1.208,-2.083 -4.958,-8.458 -12.917,-12.083c-5.5,-2.5 -10.292,-2.458 -12.75,-2.417c-3.083,0.042 -9.958,0.167 -16.042,4.75c-3.5,2.625 -5.25,5.583 -7.75,9.792c-1,1.708 -1.917,3.458 -2.75,5.292c-0.5,1.167 -1,2.333 -1.417,3.5c-0.417,1.167 -0.833,2.458 -0.833,3.75l0,66.375c0,0.667 -0.75,0.5 -1.208,0.5l-10.958,0c-0.833,0 -1.542,-0.667 -1.542,-1.542l0,-67.458c-0.25,-2.5 -1,-6.667 -3.542,-11.125c-0.875,-1.542 -3.083,-5.375 -7.333,-8.542c-8.125,-6.042 -17.5,-5.042 -19.708,-4.75c-9.667,1.292 -15.5,7.333 -18,9.917c-5.167,5.333 -7.5,11.042 -8.542,14.417l-0.333,2.083l-0.417,65.75c0,0.833 -0.708,1.5 -1.542,1.5l-11.458,0c-0.833,0 -1.542,-0.667 -1.542,-1.542l0.167,-101c0,-0.833 0.667,-1.5 1.5,-1.542l-0.125,0Z" style="fill-rule:nonzero;"/><path d="M511.833,77.375c-29.792,0 -53.917,24.375 -53.917,54.458c0,30.083 24.125,54.417 53.917,54.417c29.792,0 53.875,-24.375 53.875,-54.417c0,-30.042 -24.125,-54.458 -53.875,-54.458Zm-0.417,95.458c-22.5,0 -40.75,-18.417 -40.75,-41.167c0,-22.75 18.25,-41.167 40.75,-41.167c22.5,0 40.792,18.417 40.792,41.167c0,22.75 -18.25,41.167 -40.792,41.167Z" style="fill-rule:nonzero;"/><path d="M579.75,82.792l11.042,0c0.833,0 1.542,0.667 1.542,1.542l0,18.375c1.125,-2 2.833,-4.75 5.375,-7.708c2.417,-2.792 7.083,-8.125 14.708,-11.292c6.833,-2.875 12.667,-2.625 18.833,-2.333c5.667,0.25 11.875,0.542 18.833,4.125c6.833,3.542 10.75,8.583 12.542,10.958c1.75,2.292 4.083,5.333 5.542,10.042c1.5,4.708 1.458,8.792 1.25,11.292l-0.167,67c0,0.833 -0.667,1.542 -1.542,1.542l-12,0c-0.833,0 -1.542,-0.708 -1.542,-1.542l0.333,-66.625c-0.25,-2.833 -1.042,-7.417 -3.958,-12c-4.125,-6.542 -10.083,-9.375 -12.75,-10.583c-3.125,-1.417 -5.708,-2 -6.458,-2.167c-8.833,-1.833 -16.208,1.125 -18.292,1.958c-12.125,5.042 -17.083,16.167 -18.125,18.667l-0.333,71.333c0,0.833 -0.667,1.5 -1.542,1.5l-13.458,0c-0.833,0 -1.542,-0.667 -1.542,-1.542l0.167,-101c0,-0.833 0.667,-1.542 1.542,-1.542Z" style="fill-rule:nonzero;"/><path d="M680.75,186.875l11.375,0.125c1.042,0 1.75,-1 1.458,-2c-1.25,-4.042 -1.833,-7.625 -2.083,-10.333c-0.125,-1.375 -0.458,-5.542 0.167,-10.917c0.375,-3.083 0.833,-7.125 2.792,-11.917c0.667,-1.667 2.75,-6.667 6.833,-11.083c8.417,-9.042 20.292,-10.083 23.625,-10.292c1.583,-0.083 16.833,-0.625 27.542,10.292c4.583,4.667 6.833,9.875 7.333,11.083c1.667,4 2.167,7.375 2.792,11.583c0.667,4.625 1.083,7.458 0.667,11.083c-0.292,2.333 -1.083,6.208 -3.625,10.625c-0.583,1 0.167,2.25 1.292,2.25l13.583,0.125c1.917,0 2.583,-0.667 2.625,-1.5l0.708,-119.958c0,-0.833 -0.667,-1.542 -1.542,-1.542l-12.833,0c-0.833,0 -1.542,0.667 -1.542,1.542l0.167,68.042c0,1.5 -1.917,2.125 -2.75,0.917c-1.458,-2.083 -3.333,-4.375 -5.75,-6.542c-10.833,-9.833 -23.917,-10.5 -28.333,-10.667c-3.958,-0.125 -20.583,-0.208 -33.75,12.125c-9.417,8.792 -12.375,19.5 -13.292,22.792c-1.458,5.208 -1.75,10.167 -1.792,10.833c-0.292,4.667 0.125,8.208 0.5,10.958c0.375,3 1.042,6.875 2.333,11.292c0.208,0.667 0.792,1.125 1.458,1.125l0.042,0l0,-0.042Z" style="fill-rule:nonzero;"/><g><path d="M355.05,267.825c6.2,0 9.1,-3.95 9.1,-7.75c0,-1.8 -0.65,-3.4 -1.85,-4.75c-1.25,-1.35 -3,-2.25 -5.2,-2.75l-3.4,-0.7c-1.5,-0.3 -2.5,-1.2 -2.5,-2.6c0,-0.8 0.3,-1.5 1,-2c0.7,-0.55 1.5,-0.8 2.4,-0.8c2.65,0 4.05,1.55 4.5,3.45l4.65,-1.3c-0.15,-1.05 -0.55,-2.1 -1.5,-3.35c-1.35,-1.8 -3.8,-3.25 -7.65,-3.3c-2.5,0 -4.6,0.8 -6.25,2.3c-1.7,1.55 -2.55,3.35 -2.55,5.5c0,3.35 2.2,6.1 6.6,7.1l3.15,0.75c2.1,0.5 2.95,1.4 2.95,2.75c0,1.75 -1.25,2.9 -3.5,2.9c-2.75,0 -4.5,-1.65 -5,-3.95l-4.75,1.25c0.1,1.2 0.6,2.4 1.65,3.75c1.45,1.9 4.15,3.45 8.15,3.5Z" style="fill-rule:nonzero;"/><g><path d="M383.25,242.525l-6.3,0l0,-7.7l-5.55,0l0,7.7l-4.8,0l0,5l4.8,0l0,12.15c0,2.9 0.65,4.95 1.9,6.15c1.25,1.2 3.2,1.8 5.75,1.8c1.5,0 2.85,-0.2 3.95,-0.5l0,-4.75c-0.95,0.15 -1.7,0.2 -2.25,0.2c-2.7,0 -3.8,-1 -3.8,-3.2l0,-11.85l6.3,0l0,-5Z" style="fill-rule:nonzero;"/><path d="M394.3,242.525l-5.55,0l0,15.3c0,1.9 0.3,3.6 1,5.1c1.35,3 4.3,4.95 8.3,4.95c0.75,0 1.55,-0.05 2.3,-0.25c0.8,-0.2 1.7,-0.55 2.7,-1.2c1,-0.6 1.85,-1.4 2.6,-2.4l0,3.35l5.4,0l0,-24.85l-5.55,0l0,13.85c0,1.85 -0.5,3.4 -1.55,4.55c-1.05,1.15 -2.45,1.7 -4.2,1.7c-3.65,0 -5.45,-2.45 -5.45,-6.2l0,-13.9Z" style="fill-rule:nonzero;"/><path d="M416.75,254.925c0,2.2 0.55,4.3 1.55,6.25c1.05,1.95 2.5,3.55 4.4,4.75c1.85,1.2 4,1.85 6.3,1.85c0.75,0 1.65,-0.15 2.6,-0.4c0.95,-0.25 2,-0.7 3.15,-1.35c1.1,-0.7 1.95,-1.55 2.55,-2.55l0,3.9l5.45,0l0,-37.9l-5.55,0l0,16.6c-0.85,-1.35 -2.1,-2.35 -3.7,-3c-1.55,-0.7 -3,-1.05 -4.35,-1.05c-3.75,0 -7.05,1.65 -9.15,4.1c-2.05,2.45 -3.25,5.6 -3.25,8.8Zm20.5,0c0,2.2 -0.65,4 -2.05,5.55c-1.4,1.5 -3.2,2.25 -5.4,2.25c-2.2,0 -3.95,-0.75 -5.35,-2.25c-1.4,-1.55 -2.1,-3.35 -2.1,-5.55c0,-2.2 0.7,-4.05 2.1,-5.6c1.4,-1.5 3.15,-2.25 5.35,-2.25c2.2,0 4,0.75 5.4,2.25c1.4,1.55 2.05,3.4 2.05,5.6Z" style="fill-rule:nonzero;"/><path d="M450.35,237.025c0.7,0.7 1.55,1.1 2.55,1.1c1.05,0 1.9,-0.4 2.6,-1.1c0.7,-0.7 1.05,-1.55 1.05,-2.55c0,-1.05 -0.35,-1.9 -1.05,-2.6c-0.7,-0.75 -1.55,-1.1 -2.6,-1.1c-1,0 -1.85,0.35 -2.55,1.1c-0.7,0.7 -1.1,1.55 -1.1,2.6c0,1 0.4,1.85 1.1,2.55Zm-0.2,30.35l5.55,0l0,-24.85l-5.55,0l0,24.85Z" style="fill-rule:nonzero;"/><path d="M461.4,254.925c0,2.4 0.6,4.55 1.8,6.55c1.2,1.95 2.75,3.55 4.8,4.65c2,1.1 4.15,1.7 6.55,1.7c7.1,0.15 13.25,-5.8 13.1,-13c0,-2.4 -0.6,-4.55 -1.75,-6.55c-1.2,-1.95 -2.8,-3.5 -4.8,-4.6c-2,-1.1 -4.2,-1.65 -6.5,-1.65c-2.4,0 -4.6,0.55 -6.6,1.65c-2.05,1.1 -3.6,2.7 -4.8,4.65c-1.2,2 -1.8,4.2 -1.8,6.6Zm5.7,-0.1c0,-2.2 0.65,-4.05 2.05,-5.55c1.4,-1.5 3.2,-2.25 5.4,-2.25c2.2,0 4,0.75 5.35,2.3c1.4,1.5 2.1,3.4 2.1,5.6c0,2.2 -0.7,4.05 -2.05,5.55c-1.4,1.55 -3.15,2.3 -5.35,2.3c-2.2,0 -4,-0.8 -5.4,-2.35c-1.4,-1.55 -2.1,-3.45 -2.1,-5.6Z" style="fill-rule:nonzero;"/></g></g></svg>