<svg width="296" height="155" viewBox="0 0 296 155" fill="none" xmlns="http://www.w3.org/2000/svg">
<path d="M134.441 2.68605C132.778 1.27896 130.476 0.383545 128.045 0.383545H116.661C115.126 0.383545 113.591 1.27896 112.823 2.55813C111.544 4.86064 110.905 7.41898 110.905 10.1052C110.905 10.6169 110.904 11.2565 111.032 11.7682C111.544 16.7569 115.765 20.5944 120.754 20.5944C121.777 20.5944 122.801 20.4665 123.824 20.0828C124.208 19.9548 124.336 19.4432 124.08 19.0594C123.184 18.164 122.161 16.2452 123.824 14.1986C124.464 13.4311 125.359 12.7915 126.382 12.6636C127.917 12.5357 129.197 13.1752 129.964 14.3265L131.883 17.2686C132.394 18.0361 133.546 18.2919 134.313 17.6523C136.488 15.8615 137.767 13.1752 137.767 10.2332C137.895 7.16314 136.488 4.47689 134.441 2.68605Z" fill="#B2B2B2"/>
<path d="M92.8682 69.0752C91.4611 69.0752 90.0541 68.9473 88.7749 68.8194C88.647 68.8194 88.391 68.8194 88.2631 68.8194C89.926 77.0061 90.0541 87.3673 89.0307 99.1357C88.3911 107.322 87.112 116.277 85.577 125.614L89.9261 125.359C90.1819 125.359 90.3098 125.359 90.5657 125.359C91.0773 125.359 91.5891 125.359 91.9729 125.487C94.2754 126.126 96.0661 128.045 96.3219 130.475C96.3219 130.731 96.3219 130.859 96.3219 131.115C96.3219 132.522 95.8103 133.673 95.0428 134.697H124.464C129.836 134.697 134.313 130.347 134.313 124.847V27.5022C134.441 50.5272 115.765 69.0752 92.8682 69.0752Z" fill="#B2B2B2"/>
<path d="M91.5889 18.6756C92.3564 19.9548 94.2752 19.9548 95.1706 18.6756C96.194 17.1406 96.7056 15.3498 96.7056 13.431C96.7056 11.1285 95.938 9.4656 95.0426 8.18643C94.1472 6.90726 92.3563 6.90726 91.4608 8.18643C90.5654 9.72143 89.9259 11.5123 89.9259 13.431C89.9259 15.3498 90.5656 17.1406 91.5889 18.6756Z" fill="#B2B2B2"/>
<path d="M65.8769 123.695C65.4932 123.695 65.1095 123.695 64.7258 123.823L64.0862 123.951L61.7836 124.591C63.7024 122.032 64.8538 118.707 64.8538 115.253C64.8538 107.45 59.2252 100.926 51.8061 99.647C57.8182 101.822 62.1675 107.706 62.1675 114.485C62.1675 118.835 60.3765 122.8 57.5623 125.742C55.8994 127.405 53.8528 128.684 51.5503 129.452L59.2253 127.405L60.7602 127.021L64.9816 125.87C65.3653 125.742 65.7493 125.742 66.133 125.742C68.1797 125.742 69.9705 127.405 69.9705 129.58V134.057V134.824H72.017V129.58C71.7612 126.254 69.0748 123.695 65.8769 123.695Z" fill="#B2B2B2"/>
<path d="M9.8501 0.383751C4.47759 0.383751 0.000244141 4.73293 0.000244141 10.2334V23.2809V61.1443V95.8098C0.000244141 97.3448 0.128224 98.8798 0.384057 100.415C1.40739 106.299 4.47752 111.416 8.8267 115.253C9.21045 115.637 9.72218 115.637 9.8501 115.253C11.513 89.1581 31.7239 72.6568 46.3064 66.0051C46.5623 65.8772 46.9458 65.7493 47.3295 65.6214C48.6087 64.9818 49.632 64.2143 50.5274 63.063C51.9345 61.4001 52.83 59.2255 52.83 56.7951C52.83 56.6672 52.83 56.5393 52.83 56.4114C55.1325 55.0043 57.1792 53.3414 58.9701 51.2947C60.1213 49.8876 61.2726 48.4805 62.168 46.8176C63.3192 44.7709 64.2147 42.4684 64.7263 40.038C63.9588 42.3405 62.9355 44.3872 61.5284 46.3059C60.5051 47.713 59.4817 48.9922 58.3305 50.1434C56.6676 51.8064 54.7489 53.2134 52.7023 54.2368C50.6556 55.388 48.4809 56.1555 46.1784 56.6672C44.8992 56.923 43.4922 57.1789 42.0851 57.3068C41.9572 57.3068 41.8291 57.3068 41.5732 57.3068C41.4453 57.3068 41.4454 57.3068 41.3175 57.3068C40.4221 57.1789 39.6545 56.4114 39.6545 55.388C39.6545 55.1322 39.6546 55.0043 39.7825 54.8764C39.9104 54.6205 40.0384 54.3647 40.1663 54.1089C41.4455 51.8064 42.213 49.3759 42.7247 46.6897C42.9805 45.5384 43.1085 44.5151 43.1085 43.3638C43.1085 43.3638 43.1085 43.3638 43.1085 43.2359C43.4922 36.2005 46.5621 29.9326 51.5508 25.5834C51.5508 23.7925 51.8067 22.0017 52.1904 20.3388C52.7021 17.9084 53.5976 15.4779 54.8768 13.3034C55.2605 12.5359 55.7722 11.8963 56.156 11.1288C60.761 4.47709 68.5639 0 77.2623 0H61.6564H9.8501V0.383751Z" fill="#B2B2B2"/>
<path d="M0.383813 122.288C0.255896 122.032 0.127917 121.777 0 121.393V124.975C0 130.347 4.34943 134.824 9.84985 134.824H13.1755C12.9197 134.696 12.664 134.568 12.4082 134.44C7.1636 131.882 2.94215 127.533 0.383813 122.288Z" fill="#B2B2B2"/>
<path d="M199.678 34.1536V10.1052C199.678 3.58147 203.388 0.383545 210.807 0.383545H221.935V66.2608C221.935 72.7845 218.226 75.9824 210.807 75.9824C206.714 75.9824 203.516 74.5754 201.085 71.7612L176.269 42.2124V66.2608C176.269 72.7845 172.56 75.9824 165.14 75.9824H154.012V0.383545H165.14C169.873 0.383545 173.327 1.91855 175.374 4.98855L199.678 34.1536Z" fill="#F39433"/>
<path d="M244.705 75.9824C237.286 75.9824 233.576 72.7845 233.576 66.2608V0.383545H280.138V9.33773C280.138 15.2219 277.324 18.2919 271.568 18.2919H255.833V29.1649H277.963V38.119C277.963 44.1311 275.149 47.0732 269.393 47.0732H255.833V66.3887C255.705 72.6566 252.124 75.9824 244.705 75.9824Z" fill="#F39433"/>
<path d="M154.012 144.29C154.012 135.848 152.989 92.1001 155.035 89.5418C157.466 86.4717 161.687 85.1926 165.396 84.553C170.897 83.5297 176.525 83.4017 182.026 84.0413C186.503 84.553 191.108 85.5763 194.561 88.3905C197.376 90.5651 199.294 93.763 200.446 97.0889C201.597 100.415 202.108 103.996 202.108 107.578C202.364 114.102 201.341 120.881 197.376 125.998C194.05 130.219 188.933 132.906 183.56 133.929C180.874 134.441 178.188 134.569 175.502 134.441C172.944 134.313 170.001 133.417 167.443 133.545C167.187 135.336 167.699 154.268 167.443 154.268C167.699 154.14 154.012 154.779 154.012 144.29ZM167.571 108.985V121.905C168.594 122.161 169.617 122.416 170.641 122.672C171.792 122.8 173.199 123.056 174.862 123.184C176.525 123.312 178.188 123.184 179.595 122.672C181.002 122.161 182.409 121.521 183.816 120.626C185.096 119.73 186.247 118.323 187.014 116.276C187.782 114.23 188.166 111.927 188.166 109.113C188.166 106.811 187.782 104.764 187.014 103.101C186.247 101.438 185.351 100.159 184.328 99.1355C183.305 98.2401 182.025 97.6005 180.362 97.0889C178.7 96.5772 177.421 96.3214 176.27 96.3214C175.118 96.1934 173.839 96.3214 172.176 96.4493C170.513 96.5772 169.49 96.7051 169.234 96.833C168.85 96.833 168.338 96.9609 167.571 97.2168H167.443C167.571 96.9609 167.571 100.926 167.571 108.985Z" fill="#0091CC"/>
<path d="M225.39 118.835C231.146 126.894 250.462 123.312 256.09 118.195C259.8 129.964 248.926 133.034 246.88 133.417C212.47 139.429 210.807 115.125 210.679 108.729C210.552 102.333 213.11 84.2972 234.728 83.7855C240.484 83.6576 246.624 84.1693 251.485 87.4951C254.427 89.5418 256.218 92.6118 257.113 95.9376C258.136 99.5193 258.137 103.101 256.858 106.811C252.764 117.683 232.425 117.683 226.285 117.428C225.517 117.3 224.878 118.195 225.39 118.835ZM223.215 105.02C223.087 105.915 223.727 106.683 224.622 106.683C230.762 106.555 245.472 105.915 245.472 99.903C245.472 97.8564 243.682 96.1934 241.763 95.298C233.832 92.1001 225.134 95.9376 223.215 105.02Z" fill="#0091CC"/>
<path d="M294.465 121.521C295.361 124.207 295.488 126.638 294.849 128.812C294.209 130.987 293.186 132.522 291.779 133.289C288.581 134.313 285.511 134.569 282.569 134.185C279.627 133.801 276.941 132.906 274.638 131.754C272.336 130.475 270.417 128.684 269.01 126.254C267.603 123.824 266.835 121.137 266.835 118.067V79.0526C266.835 77.1339 267.091 75.5989 267.731 74.4476C268.37 73.1685 269.394 72.273 270.673 71.7614C271.952 71.2497 273.487 70.8659 274.894 70.738C276.429 70.6101 278.22 70.6101 280.395 70.738V83.9135H296C296 84.0414 296 84.2972 296 84.5531C296 84.8089 296.001 85.3206 295.873 86.216C295.745 87.1114 295.616 87.8789 295.36 88.6464C295.105 89.4139 294.721 90.3093 294.081 91.2047C293.442 92.1002 292.803 92.9956 292.035 93.6352C291.268 94.2747 290.244 94.9143 288.837 95.2981C287.558 95.8097 286.023 95.9377 284.36 95.9377C282.953 95.9377 281.546 95.9377 280.395 96.0656C280.395 102.973 280.522 109.881 280.395 116.788C280.395 118.323 280.65 119.986 281.802 121.137C282.569 121.905 283.592 122.289 284.616 122.416C287.046 122.8 289.605 122.416 291.907 122.033C293.186 121.649 293.954 121.521 294.465 121.521Z" fill="#0091CC"/>
<path d="M286.405 57.5623H288.068C288.58 57.5623 288.835 57.6902 288.963 57.8181C289.091 57.946 289.219 58.3298 289.219 58.8414V59.6089C289.219 59.8648 289.22 60.1206 289.347 60.2485C289.347 60.3764 289.348 60.5043 289.475 60.6323H291.266V60.3764C291.138 60.2485 291.01 60.1206 291.01 59.9927C291.01 59.8648 291.01 59.6089 291.01 59.2252V58.7135C291.01 58.2018 290.883 57.8181 290.755 57.4343C290.627 57.1785 290.371 56.9227 289.987 56.7948C290.371 56.6668 290.754 56.411 290.882 56.0273C291.01 55.6435 291.138 55.2598 291.138 54.876C291.138 54.6202 291.138 54.2364 291.01 54.1085C290.882 53.8527 290.755 53.5968 290.627 53.4689C290.371 53.2131 290.243 53.0852 289.859 52.9572C289.603 52.8293 289.219 52.8293 288.58 52.7014H284.87V60.5043H286.533V57.5623H286.405ZM286.405 54.1085H288.196C288.58 54.1085 288.835 54.1085 288.963 54.2364C289.219 54.3643 289.475 54.7481 289.475 55.1318C289.475 55.5156 289.347 55.8993 288.963 56.0273C288.835 56.1552 288.58 56.1552 288.196 56.1552H286.405V54.1085Z" fill="#F39433"/>
<path d="M288.069 64.5978C292.418 64.5978 295.872 61.0161 295.872 56.7949C295.872 52.4457 292.291 48.9919 288.069 48.9919C283.72 48.9919 280.266 52.5736 280.266 56.7949C280.138 61.0161 283.72 64.5978 288.069 64.5978ZM288.069 50.0153C291.779 50.0153 294.849 53.0853 294.849 56.7949C294.849 60.5045 291.779 63.5745 288.069 63.5745C284.36 63.5745 281.289 60.5045 281.289 56.7949C281.289 52.9574 284.36 50.0153 288.069 50.0153Z" fill="#F39433"/>
</svg>
