<svg width="200" height="93" viewBox="0 0 200 93" fill="none" xmlns="http://www.w3.org/2000/svg">
<path d="M86.9761 33.692V40.8926H87.8157C87.9317 40.8926 88.0205 40.9815 88.0205 41.0978V41.8842C88.0205 42.0004 87.9317 42.0893 87.8157 42.0893H84.6962C84.5802 42.0893 84.4915 42.0004 84.4915 41.8842V41.0978C84.4915 40.9815 84.5802 40.8926 84.6962 40.8926H85.529V33.692H84.6962C84.5802 33.692 84.4915 33.6031 84.4915 33.4868V32.7004C84.4915 32.5842 84.5802 32.4953 84.6962 32.4953H87.8157C87.9317 32.4953 88.0205 32.5842 88.0205 32.7004V33.4868C88.0205 33.6031 87.9317 33.692 87.8157 33.692H86.9761Z" fill="white"/>
<path d="M96.314 33.692H95.1536C95.0376 33.692 94.9488 33.6031 94.9488 33.4868V32.7004C94.9488 32.5842 95.0376 32.4953 95.1536 32.4953H98.669C98.785 32.4953 98.8737 32.5842 98.8737 32.7004V33.4868C98.8737 33.6031 98.785 33.692 98.669 33.692H97.4676V41.9799C97.4676 42.0962 97.3789 42.1851 97.2628 42.1851H96.1024C96.0273 42.1851 95.9591 42.144 95.9249 42.0825L91.3925 33.9929V40.8926H92.5597C92.6758 40.8926 92.7645 40.9815 92.7645 41.0978V41.8842C92.7645 42.0004 92.6758 42.0893 92.5597 42.0893H89.0512C88.9352 42.0893 88.8464 42.0004 88.8464 41.8842V41.0978C88.8464 40.9815 88.9352 40.8926 89.0512 40.8926H90.2116V33.692H89.0512C88.9352 33.692 88.8464 33.6031 88.8464 33.4868V32.7004C88.8464 32.5842 88.9352 32.4953 89.0512 32.4953H91.9932C92.0683 32.4953 92.1365 32.5363 92.1707 32.5979L96.314 39.949V33.692Z" fill="white"/>
<path d="M104.676 33.0902V32.6457C104.676 32.5705 104.662 32.509 104.73 32.4543C104.785 32.4132 104.84 32.4269 104.908 32.4269H105.645C105.761 32.4269 105.85 32.5158 105.85 32.6321V35.128C105.85 35.2443 105.761 35.3332 105.645 35.3332H104.683V34.7382C104.683 34.6904 104.669 34.6493 104.642 34.6083C104.15 33.8971 103.488 33.5484 102.648 33.5484C102.123 33.5484 101.72 33.6578 101.44 33.8698C101.16 34.0818 101.024 34.3895 101.024 34.7861C101.024 35.1827 101.154 35.4563 101.42 35.6614C101.686 35.8597 102.089 36.0307 102.635 36.1674L103.761 36.4683C104.478 36.6598 105.024 36.9128 105.413 37.2274C105.802 37.5419 106.048 37.877 106.164 38.2257C106.28 38.5813 106.341 38.9711 106.341 39.4019C106.341 40.2704 106.068 40.961 105.529 41.4739C104.99 41.9799 104.259 42.2398 103.352 42.2398C102.444 42.2398 101.693 41.9252 100.983 41.2824C101.003 41.3029 100.983 41.4671 100.983 41.4944C100.983 41.6312 100.983 41.7611 100.983 41.8979C100.983 42.0415 100.894 42.0757 100.758 42.0893C100.621 42.103 100.505 42.0757 100.382 42.0757H99.9932C99.8771 42.0757 99.7884 41.9868 99.7884 41.8705V38.7865C99.7884 38.6702 99.8771 38.5813 99.9932 38.5813H100.375C100.478 38.5813 100.58 38.5813 100.683 38.5813C100.771 38.5813 100.887 38.5608 100.949 38.636C100.997 38.6976 100.976 38.7865 100.983 38.8617C100.983 38.9506 100.983 39.0326 100.983 39.1215V39.4361C101.556 40.4892 102.3 41.0157 103.222 41.0157C103.761 41.0157 104.177 40.879 104.471 40.5986C104.765 40.3182 104.915 39.9285 104.915 39.4224C104.915 38.7386 104.43 38.2599 103.468 37.9932L102.273 37.6582C101.413 37.412 100.778 37.0769 100.369 36.6598C99.959 36.2426 99.7543 35.6888 99.7543 34.9981C99.7543 34.1501 100 33.5005 100.498 33.0355C100.997 32.5705 101.686 32.338 102.56 32.338C103.324 32.338 104.034 32.591 104.696 33.0971L104.676 33.0902Z" fill="white"/>
<path d="M113.891 35.7982V33.8971C113.891 33.7809 113.802 33.692 113.686 33.692H112.123C112.007 33.692 111.918 33.7809 111.918 33.8971V40.8926H112.956C113.072 40.8926 113.16 40.9815 113.16 41.0978V41.8842C113.16 42.0004 113.072 42.0893 112.956 42.0893H109.454C109.338 42.0893 109.249 42.0004 109.249 41.8842V41.0978C109.249 40.9815 109.338 40.8926 109.454 40.8926H110.471V33.8971C110.471 33.7809 110.382 33.692 110.266 33.692H108.71C108.594 33.692 108.505 33.7809 108.505 33.8971V35.7982C108.505 35.9144 108.416 36.0033 108.3 36.0033H107.529C107.413 36.0033 107.324 35.9144 107.324 35.7982V32.7004C107.324 32.5842 107.413 32.4953 107.529 32.4953H114.867C114.983 32.4953 115.072 32.5842 115.072 32.7004V35.7982C115.072 35.9144 114.983 36.0033 114.867 36.0033H114.096C113.98 36.0033 113.891 35.9144 113.891 35.7982Z" fill="white"/>
<path d="M118.512 33.8971V40.6875C118.512 40.8038 118.601 40.8926 118.717 40.8926H119.352C119.468 40.8926 119.556 40.9815 119.556 41.0978V41.8842C119.556 42.0004 119.468 42.0893 119.352 42.0893H116.232C116.116 42.0893 116.027 42.0004 116.027 41.8842V41.0978C116.027 40.9815 116.116 40.8926 116.232 40.8926H116.86C116.976 40.8926 117.065 40.8038 117.065 40.6875V33.8971C117.065 33.7809 116.976 33.692 116.86 33.692H116.232C116.116 33.692 116.027 33.6031 116.027 33.4868V32.7004C116.027 32.5842 116.116 32.4953 116.232 32.4953H119.352C119.468 32.4953 119.556 32.5842 119.556 32.7004V33.4868C119.556 33.6031 119.468 33.692 119.352 33.692H118.717C118.601 33.692 118.512 33.7809 118.512 33.8971Z" fill="white"/>
<path d="M127.099 35.7982V33.8971C127.099 33.7809 127.01 33.692 126.894 33.692H125.331C125.215 33.692 125.126 33.7809 125.126 33.8971V40.6875C125.126 40.8038 125.215 40.8926 125.331 40.8926H126.164C126.28 40.8926 126.369 40.9815 126.369 41.0978V41.8842C126.369 42.0004 126.28 42.0893 126.164 42.0893H122.662C122.546 42.0893 122.457 42.0004 122.457 41.8842V41.0978C122.457 40.9815 122.546 40.8926 122.662 40.8926H123.474C123.59 40.8926 123.679 40.8038 123.679 40.6875V33.8971C123.679 33.7809 123.59 33.692 123.474 33.692H121.918C121.802 33.692 121.713 33.7809 121.713 33.8971V35.7982C121.713 35.9144 121.625 36.0033 121.509 36.0033H120.737C120.621 36.0033 120.532 35.9144 120.532 35.7982V32.7004C120.532 32.5842 120.621 32.4953 120.737 32.4953H128.075C128.191 32.4953 128.28 32.5842 128.28 32.7004V35.7982C128.28 35.9144 128.191 36.0033 128.075 36.0033H127.304C127.188 36.0033 127.099 35.9144 127.099 35.7982Z" fill="white"/>
<path d="M131.952 33.692C131.836 33.692 131.747 33.7809 131.747 33.8971V38.5813C131.747 39.4429 131.911 40.0721 132.239 40.4687C132.567 40.8653 133.051 41.0704 133.686 41.0704C134.321 41.0704 134.819 40.8721 135.154 40.4755C135.488 40.0789 135.659 39.4498 135.659 38.595V33.8971C135.659 33.7809 135.57 33.692 135.454 33.692H134.744C134.628 33.692 134.539 33.6031 134.539 33.4868V32.7004C134.539 32.5842 134.628 32.4953 134.744 32.4953H138.082C138.198 32.4953 138.287 32.5842 138.287 32.7004V33.4868C138.287 33.6031 138.198 33.692 138.082 33.692H137.297C137.181 33.692 137.092 33.7809 137.092 33.8971V38.7249C137.092 39.8669 136.806 40.7422 136.225 41.344C135.645 41.9457 134.799 42.2466 133.679 42.2466C132.56 42.2466 131.707 41.9457 131.14 41.3508C130.573 40.7559 130.294 39.8532 130.294 38.6429V33.8971C130.294 33.7809 130.205 33.692 130.089 33.692H129.317C129.201 33.692 129.113 33.6031 129.113 33.4868V32.7004C129.113 32.5842 129.201 32.4953 129.317 32.4953H132.669C132.785 32.4953 132.874 32.5842 132.874 32.7004V33.4868C132.874 33.6031 132.785 33.692 132.669 33.692H131.945H131.952Z" fill="white"/>
<path d="M145.679 35.7982V33.8971C145.679 33.7809 145.59 33.692 145.474 33.692H143.911C143.795 33.692 143.707 33.7809 143.707 33.8971V40.6875C143.707 40.8038 143.795 40.8926 143.911 40.8926H144.744C144.86 40.8926 144.949 40.9815 144.949 41.0978V41.8842C144.949 42.0004 144.86 42.0893 144.744 42.0893H141.242C141.126 42.0893 141.038 42.0004 141.038 41.8842V41.0978C141.038 40.9815 141.126 40.8926 141.242 40.8926H142.055C142.171 40.8926 142.259 40.8038 142.259 40.6875V33.8971C142.259 33.7809 142.171 33.692 142.055 33.692H140.498C140.382 33.692 140.294 33.7809 140.294 33.8971V35.7982C140.294 35.9144 140.205 36.0033 140.089 36.0033H139.317C139.201 36.0033 139.113 35.9144 139.113 35.7982V32.7004C139.113 32.5842 139.201 32.4953 139.317 32.4953H146.655C146.771 32.4953 146.86 32.5842 146.86 32.7004V35.7982C146.86 35.9144 146.771 36.0033 146.655 36.0033H145.884C145.768 36.0033 145.679 35.9144 145.679 35.7982Z" fill="white"/>
<path d="M157.952 37.2615C157.952 38.2394 157.734 39.1079 157.304 39.8669C156.874 40.626 156.28 41.214 155.522 41.6243C154.765 42.0415 153.904 42.2466 152.935 42.2466C151.966 42.2466 151.133 42.0346 150.396 41.6038C149.659 41.173 149.079 40.5781 148.662 39.8122C148.253 39.0532 148.041 38.1915 148.041 37.241C148.041 36.2905 148.253 35.4494 148.676 34.7109C149.099 33.9724 149.679 33.3911 150.416 32.9671C151.16 32.55 152 32.338 152.942 32.338C153.884 32.338 154.792 32.55 155.556 32.9808C156.314 33.4116 156.901 33.9997 157.317 34.7451C157.734 35.4904 157.945 36.3315 157.945 37.2615H157.952ZM152.997 40.9679C153.652 40.9679 154.239 40.7969 154.758 40.455C155.277 40.1131 155.672 39.6549 155.952 39.0874C156.232 38.5198 156.375 37.9112 156.375 37.2684C156.375 36.6256 156.225 36.0033 155.925 35.4357C155.625 34.875 155.215 34.4305 154.689 34.1091C154.164 33.7877 153.57 33.6236 152.908 33.6236C152.246 33.6236 151.686 33.7809 151.188 34.0954C150.689 34.41 150.3 34.8476 150.027 35.4015C149.754 35.9554 149.618 36.5777 149.618 37.2547C149.618 37.9727 149.754 38.6224 150.027 39.1831C150.3 39.7438 150.696 40.1883 151.208 40.5029C151.72 40.8174 152.314 40.9747 152.997 40.9747V40.9679Z" fill="white"/>
<path d="M86.9625 48.2574V55.0478C86.9625 55.164 87.0512 55.2529 87.1673 55.2529H89.9045C90.0205 55.2529 90.1093 55.164 90.1093 55.0478V52.4835C90.1093 52.3672 90.198 52.2783 90.314 52.2783H91.0922C91.2082 52.2783 91.297 52.3672 91.297 52.4835V56.2445C91.297 56.3607 91.2082 56.4496 91.0922 56.4496H84.4847C84.3686 56.4496 84.2799 56.3607 84.2799 56.2445V55.4581C84.2799 55.3418 84.3686 55.2529 84.4847 55.2529H85.3106C85.4267 55.2529 85.5154 55.164 85.5154 55.0478V48.2574C85.5154 48.1412 85.4267 48.0523 85.3106 48.0523H84.4847C84.3686 48.0523 84.2799 47.9634 84.2799 47.8471V47.0607C84.2799 46.9445 84.3686 46.8556 84.4847 46.8556H87.9864C88.1024 46.8556 88.1912 46.9445 88.1912 47.0607V47.8471C88.1912 47.9634 88.1024 48.0523 87.9864 48.0523H87.1605C87.0444 48.0523 86.9557 48.1412 86.9557 48.2574H86.9625Z" fill="white"/>
<path d="M94.9692 48.0523C94.8532 48.0523 94.7645 48.1412 94.7645 48.2574V52.9416C94.7645 53.8032 94.9283 54.4324 95.2559 54.829C95.5836 55.2256 96.0682 55.4307 96.703 55.4307C97.3378 55.4307 97.8361 55.2324 98.1706 54.8358C98.5051 54.4392 98.6757 53.8101 98.6757 52.9553V48.2574C98.6757 48.1412 98.587 48.0523 98.4709 48.0523H97.761C97.645 48.0523 97.5563 47.9634 97.5563 47.8471V47.0607C97.5563 46.9445 97.645 46.8556 97.761 46.8556H101.099C101.215 46.8556 101.304 46.9445 101.304 47.0607V47.8471C101.304 47.9634 101.215 48.0523 101.099 48.0523H100.314C100.198 48.0523 100.109 48.1412 100.109 48.2574V53.0852C100.109 54.2272 99.8225 55.1025 99.2423 55.7043C98.6621 56.306 97.8156 56.6069 96.6962 56.6069C95.5767 56.6069 94.7235 56.306 94.1569 55.7111C93.5904 55.1162 93.3105 54.2135 93.3105 53.0032V48.2574C93.3105 48.1412 93.2218 48.0523 93.1057 48.0523H92.3344C92.2184 48.0523 92.1296 47.9634 92.1296 47.8471V47.0607C92.1296 46.9445 92.2184 46.8556 92.3344 46.8556H95.6859C95.802 46.8556 95.8907 46.9445 95.8907 47.0607V47.8471C95.8907 47.9634 95.802 48.0523 95.6859 48.0523H94.9624H94.9692Z" fill="white"/>
<path d="M104.601 48.2574V55.0478C104.601 55.164 104.689 55.2529 104.805 55.2529H105.44C105.556 55.2529 105.645 55.3418 105.645 55.4581V56.2445C105.645 56.3607 105.556 56.4496 105.44 56.4496H102.321C102.205 56.4496 102.116 56.3607 102.116 56.2445V55.4581C102.116 55.3418 102.205 55.2529 102.321 55.2529H102.949C103.065 55.2529 103.154 55.164 103.154 55.0478V48.2574C103.154 48.1412 103.065 48.0523 102.949 48.0523H102.321C102.205 48.0523 102.116 47.9634 102.116 47.8471V47.0607C102.116 46.9445 102.205 46.8556 102.321 46.8556H105.44C105.556 46.8556 105.645 46.9445 105.645 47.0607V47.8471C105.645 47.9634 105.556 48.0523 105.44 48.0523H104.805C104.689 48.0523 104.601 48.1412 104.601 48.2574Z" fill="white"/>
<path d="M111.584 47.4505V47.0129C111.584 46.9513 111.577 46.8761 111.631 46.8351C111.693 46.794 111.761 46.8009 111.829 46.8009H112.546C112.662 46.8009 112.751 46.8898 112.751 47.006V49.502C112.751 49.6182 112.662 49.7071 112.546 49.7071H111.782C111.713 49.7071 111.652 49.7071 111.611 49.6456C111.577 49.5977 111.584 49.543 111.584 49.4883C111.584 49.4336 111.584 49.3721 111.584 49.3174V49.119C111.584 49.0712 111.57 49.0301 111.543 48.9891C111.051 48.2848 110.389 47.9292 109.549 47.9292C109.024 47.9292 108.621 48.0386 108.341 48.2506C108.061 48.4626 107.925 48.7703 107.925 49.1669C107.925 49.5635 108.055 49.8371 108.321 50.0422C108.587 50.2405 108.99 50.4115 109.536 50.5482L110.662 50.8491C111.379 51.0406 111.925 51.2936 112.314 51.6082C112.703 51.9227 112.949 52.2578 113.065 52.6065C113.181 52.9621 113.242 53.3519 113.242 53.7827C113.242 54.6512 112.969 55.3418 112.43 55.8547C111.891 56.3607 111.16 56.6206 110.253 56.6206C109.345 56.6206 108.594 56.306 107.884 55.6632V55.9368C107.884 56.0667 107.911 56.2445 107.836 56.3607C107.768 56.4633 107.679 56.4565 107.57 56.4565H106.894C106.778 56.4565 106.689 56.3676 106.689 56.2513V53.1673C106.689 53.051 106.778 52.9621 106.894 52.9621H107.509C107.604 52.9621 107.713 52.9621 107.802 53.0032C107.877 53.0442 107.884 53.1263 107.884 53.2015C107.884 53.2835 107.884 53.3656 107.884 53.4477V53.7485C107.884 53.7827 107.898 53.8238 107.911 53.8579C108.478 54.8768 109.215 55.3829 110.116 55.3829C110.655 55.3829 111.072 55.2461 111.365 54.9657C111.659 54.6854 111.809 54.2956 111.809 53.7896C111.809 53.1057 111.324 52.6271 110.362 52.3604L109.167 52.0253C108.307 51.7791 107.672 51.444 107.263 51.0269C106.853 50.6098 106.648 50.0559 106.648 49.3652C106.648 48.5241 106.894 47.8676 107.392 47.4026C107.891 46.9376 108.58 46.7052 109.454 46.7052C110.218 46.7052 110.928 46.9582 111.59 47.4642L111.584 47.4505Z" fill="white"/>
<path d="M120.423 48.0112L122.969 55.1093C122.997 55.1914 123.079 55.2461 123.16 55.2461H123.877C123.993 55.2461 124.082 55.335 124.082 55.4512V56.2376C124.082 56.3539 123.993 56.4428 123.877 56.4428H120.512C120.396 56.4428 120.307 56.3539 120.307 56.2376V55.4512C120.307 55.335 120.396 55.2461 120.512 55.2461H121.27C121.413 55.2461 121.509 55.1093 121.461 54.9726L120.86 53.2083C120.833 53.1262 120.751 53.0715 120.669 53.0715H117.488C117.399 53.0715 117.324 53.1262 117.297 53.2083L116.696 54.9726C116.648 55.1025 116.751 55.2461 116.887 55.2461H117.611C117.727 55.2461 117.816 55.335 117.816 55.4512V56.2376C117.816 56.3539 117.727 56.4428 117.611 56.4428H114.218C114.102 56.4428 114.014 56.3539 114.014 56.2376V55.4512C114.014 55.335 114.102 55.2461 114.218 55.2461H115.024C115.113 55.2461 115.188 55.1914 115.215 55.1093L117.747 48.0112H116.805C116.689 48.0112 116.601 47.9224 116.601 47.8061V47.0607C116.601 46.9445 116.689 46.8556 116.805 46.8556H121.372C121.488 46.8556 121.577 46.9445 121.577 47.0607V47.8061C121.577 47.9224 121.488 48.0112 121.372 48.0112H120.43H120.423ZM119.113 48.0112H119.072L117.809 51.6697C117.761 51.7996 117.863 51.9432 118 51.9432H120.15C120.294 51.9432 120.389 51.8065 120.341 51.6697L119.113 48.0044V48.0112Z" fill="white"/>
<path d="M136.928 46.8556H139.898C140.014 46.8556 140.102 46.9445 140.102 47.0607V47.8471C140.102 47.9634 140.014 48.0523 139.898 48.0523H139.154C139.038 48.0523 138.949 48.1412 138.949 48.2574V55.0478C138.949 55.164 139.038 55.2529 139.154 55.2529H139.898C140.014 55.2529 140.102 55.3418 140.102 55.4581V56.2445C140.102 56.3607 140.014 56.4496 139.898 56.4496H136.703C136.587 56.4496 136.498 56.3607 136.498 56.2445V55.4581C136.498 55.3418 136.587 55.2529 136.703 55.2529H137.427C137.543 55.2529 137.631 55.164 137.631 55.0478V48.0523L134.464 54.7059H133.782L130.785 48.0523V55.0478C130.785 55.164 130.874 55.2529 130.99 55.2529H131.631C131.747 55.2529 131.836 55.3418 131.836 55.4581V56.2445C131.836 56.3607 131.747 56.4496 131.631 56.4496H128.642C128.526 56.4496 128.437 56.3607 128.437 56.2445V55.4581C128.437 55.3418 128.526 55.2529 128.642 55.2529H129.393C129.509 55.2529 129.597 55.164 129.597 55.0478V48.2574C129.597 48.1412 129.509 48.0523 129.393 48.0523H128.642C128.526 48.0523 128.437 47.9634 128.437 47.8471V47.0607C128.437 46.9445 128.526 46.8556 128.642 46.8556H131.584C131.666 46.8556 131.747 46.9103 131.775 46.9855L134.246 53.4203L136.73 46.9855C136.758 46.9035 136.84 46.8556 136.922 46.8556H136.928Z" fill="white"/>
<path d="M147.618 49.4473V48.2574C147.618 48.1412 147.529 48.0523 147.413 48.0523H143.727C143.611 48.0523 143.522 48.1412 143.522 48.2574V50.7055C143.522 50.8218 143.611 50.9107 143.727 50.9107H146.881C146.997 50.9107 147.085 50.9996 147.085 51.1158V51.9022C147.085 52.0185 146.997 52.1073 146.881 52.1073H143.727C143.611 52.1073 143.522 52.1962 143.522 52.3125V55.0478C143.522 55.164 143.611 55.2529 143.727 55.2529H147.413C147.529 55.2529 147.618 55.164 147.618 55.0478V53.7075C147.618 53.5912 147.706 53.5023 147.823 53.5023H148.594C148.71 53.5023 148.799 53.5912 148.799 53.7075V56.2445C148.799 56.3607 148.71 56.4496 148.594 56.4496H141.044C140.928 56.4496 140.84 56.3607 140.84 56.2445V55.4581C140.84 55.3418 140.928 55.2529 141.044 55.2529H141.87C141.986 55.2529 142.075 55.164 142.075 55.0478V48.2574C142.075 48.1412 141.986 48.0523 141.87 48.0523H141.044C140.928 48.0523 140.84 47.9634 140.84 47.8471V47.0607C140.84 46.9445 140.928 46.8556 141.044 46.8556H148.594C148.71 46.8556 148.799 46.9445 148.799 47.0607V49.4473C148.799 49.5635 148.71 49.6524 148.594 49.6524H147.823C147.706 49.6524 147.618 49.5635 147.618 49.4473Z" fill="white"/>
<path d="M152.28 48.2574V55.0478C152.28 55.164 152.369 55.2529 152.485 55.2529H155.222C155.338 55.2529 155.427 55.164 155.427 55.0478V52.4835C155.427 52.3672 155.515 52.2783 155.631 52.2783H156.41C156.526 52.2783 156.614 52.3672 156.614 52.4835V56.2445C156.614 56.3607 156.526 56.4496 156.41 56.4496H149.802C149.686 56.4496 149.597 56.3607 149.597 56.2445V55.4581C149.597 55.3418 149.686 55.2529 149.802 55.2529H150.628C150.744 55.2529 150.833 55.164 150.833 55.0478V48.2574C150.833 48.1412 150.744 48.0523 150.628 48.0523H149.802C149.686 48.0523 149.597 47.9634 149.597 47.8471V47.0607C149.597 46.9445 149.686 46.8556 149.802 46.8556H153.304C153.42 46.8556 153.509 46.9445 153.509 47.0607V47.8471C153.509 47.9634 153.42 48.0523 153.304 48.0523H152.478C152.362 48.0523 152.273 48.1412 152.273 48.2574H152.28Z" fill="white"/>
<path d="M160.041 48.2574V55.0478C160.041 55.164 160.13 55.2529 160.246 55.2529H162.983C163.099 55.2529 163.188 55.164 163.188 55.0478V52.4835C163.188 52.3672 163.276 52.2783 163.393 52.2783H164.171C164.287 52.2783 164.375 52.3672 164.375 52.4835V56.2445C164.375 56.3607 164.287 56.4496 164.171 56.4496H157.563C157.447 56.4496 157.358 56.3607 157.358 56.2445V55.4581C157.358 55.3418 157.447 55.2529 157.563 55.2529H158.389C158.505 55.2529 158.594 55.164 158.594 55.0478V48.2574C158.594 48.1412 158.505 48.0523 158.389 48.0523H157.563C157.447 48.0523 157.358 47.9634 157.358 47.8471V47.0607C157.358 46.9445 157.447 46.8556 157.563 46.8556H161.065C161.181 46.8556 161.27 46.9445 161.27 47.0607V47.8471C161.27 47.9634 161.181 48.0523 161.065 48.0523H160.239C160.123 48.0523 160.034 48.1412 160.034 48.2574H160.041Z" fill="white"/>
<path d="M66.8055 23.8312C67.7201 23.8039 68.6143 23.6808 69.5017 23.503C68.2321 22.0123 66.7031 20.5215 64.8464 19.1471C62 17.0477 59.4881 16.0288 58.7031 15.7279C57.4539 15.2424 52.0683 13.2799 45.0512 14.3603C42.1638 14.8048 36.1502 16.2066 30.7167 21.1985C29.5154 22.2995 25.6041 26.0947 23.372 32.4953C20.9283 39.5045 21.9795 45.4127 22.2253 46.6983C23.5154 53.3314 27.0103 57.6805 28.669 59.4926L32.6826 62.9118L33.4471 60.8603C32.3277 59.9987 30.744 58.6173 29.2492 56.6069C23.8225 49.2832 24.8737 40.7285 25.1672 38.636C25.843 33.7467 27.7406 30.2455 28.669 28.7206C30.2048 26.1904 33.3447 21.9781 38.9079 19.1471C44.0683 16.5212 48.8259 16.3365 51.1945 16.4118C52.5597 16.6374 53.9249 16.8699 55.2901 17.0956C58.9147 17.6085 61.3652 18.894 62.7986 19.8309C64.0478 20.6515 65.256 21.8892 66.8055 23.8312Z" fill="white"/>
<path d="M74.826 32.4953C74.3277 31.5516 73.7202 30.7721 73.7202 30.7721C72.983 29.8215 72.2253 29.1514 71.6724 28.7206C72.157 29.4181 72.512 30.2865 73.0376 31.4559C73.9454 33.4663 74.2731 36.6051 74.4028 37.6103C74.5598 38.807 74.8192 43.7784 73.7202 47.1838C73.1741 48.8797 72.9147 50.8491 71.8499 52.3262C70.3413 54.4118 68.6076 56.436 67.0581 58.5216C66.7509 58.9319 66.4369 59.3696 66.3823 59.8756C66.314 60.5115 66.7236 61.1612 67.3243 61.3732C68.6622 61.845 69.9045 60.0739 70.628 59.2123C71.8021 57.8173 72.8396 56.306 73.7202 54.7059C74.8396 52.6818 77.0103 48.6472 77.1332 43.0809C77.1332 43.0809 77.3038 37.159 74.826 32.4953Z" fill="white"/>
<path d="M54.9147 29.8831C55.1263 31.1276 55.3925 32.3585 55.5359 33.6099C55.8431 36.2358 54.9352 37.959 52.8806 38.8412C51.1741 39.5729 49.7338 39.1147 48.7919 37.4667C47.57 35.3263 47.5291 32.9535 47.5768 30.5806C47.6997 24.9254 51.3106 19.8993 56.5461 17.9572C57.6929 17.5332 58.7509 17.5332 59.8157 18.1076C60.1093 18.2649 60.396 18.429 60.7099 18.5453C62.1775 19.0718 63.5495 19.5026 65.1332 18.5453C66.6076 17.6495 68.3209 17.1366 69.9591 16.528C71.9386 15.7963 72.6349 16.0835 73.2082 18.1213C74.1093 21.2943 73.8567 24.5082 72.1434 27.2846C71.4403 28.4197 69.7065 28.9326 68.4164 29.6848C67.768 30.0609 67.0444 30.3071 66.3687 30.649C63.9181 31.8799 62.9693 34.0544 63.8362 36.6461C64.3277 38.1232 64.9284 39.566 65.5018 41.0089C67.6792 46.4385 69.14 51.9569 69.1263 57.913C69.1195 61.6125 69.1263 65.2504 68.4096 68.8815C68.314 69.3876 68.8328 70.0372 69.1263 70.5843C69.6724 71.6032 70.3277 72.5742 70.8055 73.6204C71.1878 74.4615 70.7168 75.0633 69.8362 75.0633C67.0035 75.077 64.1707 75.0633 61.3379 74.9402C60.9147 74.9197 60.3482 74.359 60.1366 73.9076C58.4779 70.4133 57.9181 66.6933 58.3345 62.8707C58.396 62.3032 59.14 61.5304 59.727 61.3526C62.7509 60.409 63.727 58.3643 63.2902 55.0204C63.1468 53.9468 62.942 52.8732 62.6758 51.8201C62.3482 50.5277 61.6451 50.3226 60.6553 51.1568C59.1127 52.4561 56.8806 52.3125 55.4608 50.8218C54.0751 49.3652 53.6861 49.4062 52.669 51.1568C51.7475 52.7365 51.2424 54.3913 51.3857 56.2855C51.5222 58.084 52.396 59.2738 53.8635 60.1354C55.3721 61.0244 55.3789 61.3663 54.7236 62.9733C53.4881 66.0163 50.7987 66.6181 48.0547 67.3224C46.9557 67.6028 45.8431 68.1293 44.9557 68.82C43.2902 70.1193 42.4437 70.0851 41.1878 68.3003C38.2185 64.0879 39.8704 59.267 44.1297 57.2771C44.6553 57.0309 44.9966 56.3949 45.4198 55.9436C44.8192 56.0325 44.1229 55.9641 43.6246 56.2445C41.1127 57.6668 38.9011 59.3764 38.2867 62.4673C37.6451 65.7086 39.2697 69.3944 42.1161 71.0629C42.8465 71.4869 43.6588 71.8562 44.2253 72.4511C44.6076 72.8546 44.8874 73.7162 44.7168 74.1743C44.5393 74.6393 43.7611 75.0838 43.2014 75.1522C39.3994 75.6172 35.2697 73.2717 33.7543 69.7363C33.0103 68.0063 32.1161 66.5839 30.4983 65.4556C28.198 63.8554 27.7611 61.4142 28.396 58.7678C28.7441 57.3181 28.8942 55.7658 29.5495 54.4665C30.0547 53.4613 31.1809 52.7502 32.1024 51.9979C32.3004 51.8338 32.7987 52.0321 33.1605 52.0663C33.099 52.4493 33.1605 52.9416 32.9489 53.2015C31.5018 55.0068 30.7236 57.024 30.8328 59.3559C30.8533 59.773 30.8328 60.2585 31.0308 60.5799C31.3584 61.0928 31.8567 61.4894 32.2799 61.9339C32.4574 61.4142 32.6963 60.9082 32.8055 60.3679C33.2355 58.2344 34.2117 56.436 35.7748 54.9042C38.0274 52.7091 40.9079 51.615 43.6041 50.1585C45.9045 48.9139 48.1366 47.4163 50.082 45.6726C51.0717 44.7836 51.4608 43.1561 51.9386 41.7953C52.3277 40.6807 52.6553 39.7917 53.9727 39.3609C55.1673 38.9711 56.1024 38.0616 56.4301 36.6598C56.942 34.4579 56.7099 32.3449 55.8908 30.2797C55.7884 30.0267 55.4676 29.8694 55.2492 29.6643C55.14 29.7326 55.0308 29.7942 54.9216 29.8626L54.9147 29.8831ZM59.3175 25.2536C59.6383 24.645 59.9932 24.2757 59.925 24.0159C59.8499 23.7218 59.3925 23.5235 59.1058 23.291C58.9011 23.5646 58.5188 23.8449 58.5325 24.1048C58.5461 24.4057 58.9079 24.6929 59.3175 25.2536Z" fill="white"/>
<path d="M61.5154 55.376C61.256 55.5265 61.1741 55.9094 61.3447 56.1487C61.5154 56.3881 61.9181 56.4223 62.1297 56.2171C62.3413 56.012 62.3072 55.6085 62.0615 55.4376C61.8157 55.2666 61.4267 55.3897 61.3174 55.6632" fill="white"/>
<path d="M54.4437 55.2393C54.1843 55.3897 54.1024 55.7726 54.2731 56.012C54.4437 56.2513 54.8465 56.2855 55.0581 56.0804C55.2697 55.8752 55.2355 55.4718 54.9898 55.3008C54.7441 55.1299 54.355 55.2529 54.2458 55.5265" fill="white"/>
</svg>
