<?xml version="1.0" encoding="UTF-8"?>
<svg id="Outline" xmlns="http://www.w3.org/2000/svg" version="1.1" viewBox="0 0 64 64">
  <!-- Generator: Adobe Illustrator 29.0.0, SVG Export Plug-In . SVG Version: 2.1.0 Build 186)  -->
  <path d="M55.77004,25c0-.32001,0-.64001.01001-.97003.01996-.54999-.42004-1.01001-.97003-1.02997-.54999,0-1.01001.41998-1.02997.96997-.01001.35004-.01001.69-.01001,1.03003,0,2.62.26001,5.23999.77997,7.82996,0,.02002.01001.08002.01001.18005,0,.54999-.45001.98999-1,.98999-4.20001,0-8.28998-.87-12.14001-2.57001l-2.41998-1.08002v-2.07001s6.76001,1.69,6.76002,1.69001c.52916.13238,1.0832-.19984,1.20995-.72998.13-.53003-.18994-1.08002-.72998-1.21002l-7.23999-1.81v-2.44l7.23999-1.81c.54004-.13.85999-.67999.72998-1.20996-.12994-.54004-.67999-.86005-1.20996-.73004l-6.76001,1.69v-2.07001l2.41998-1.07996c3.85004-1.70001,7.94-2.57001,12.14001-2.57001.54999,0,1,.44,1,.98999,0,.09998-.01001.15997-.02002.21002-.19995.98999-.33997,1.87-.44,2.66998-.06995.54999.32001,1.04999.86005,1.12.56.07001,1.04999-.32001,1.12-.85999.09998-.76001.23999-1.60004.40997-2.52002.04999-.19.07001-.40002.07001-.62,0-1.65002-1.34998-2.98999-3-2.98999-4.47998,0-8.84003.91998-12.96002,2.75l-2.81,1.25h-11.57996l-2.81-1.25c-4.10004-1.82001-8.47003-2.75-12.96002-2.75-.90002,0-1.75.39996-2.32001,1.09998s-.79999,1.60004-.62,2.48999c.97998,4.92004.97998,9.90002,0,14.82001-.17999.89001.04999,1.79004.62,2.48999.57001.70001,1.41998,1.10004,2.32001,1.10004.75,0,1.48999-.04004,2.22998-.09003l-3.38,3.38c-.37.38-.38995.97998-.03998,1.37l8,9c.19.22003.46997.34003.75.34003h.08002c.31-.03003.59998-.20001.76996-.47003l3.94-6.22998c.29004-.46002.15002-1.08002-.32001-1.38-.45996-.28998-1.07996-.15002-1.37994.32001l-3.23004,5.09998-6.48999-7.29999,4.52002-4.51001c2.57001-.45001,5.08997-1.20001,7.51001-2.27997l2.81-1.25h1.34998l-4.27997,6.76996c-.28999.45995-.15007,1.07983.31973,1.37987.43949.28068,1.08871.14049,1.38022-.31987l4.94-7.82996h4.16003l11.07001,17.52997c.16998.27002.45996.44.76996.47003h.08002c.28003,0,.56-.12.75-.34003l8-9c.34998-.39001.33002-.98999-.03998-1.37l-3.38-3.38c.73999.04999,1.47998.09003,2.22998.09003,1.65002,0,3-1.34003,3-2.98999,0-.22003-.02002-.43005-.06-.59003-.47998-2.44-.72998-4.92999-.72998-7.41998ZM25.00002,21.71997l-6.76001-1.69c-.52997-.13-1.08002.19-1.20996.73004-.13.52997.18994,1.07996.72998,1.20996l7.23999,1.81v2.44l-7.23995,1.80999c-1.09855.27464-.91076,1.97004.23995,1.97004.08002,0,.15997-.01001.23999-.03003l6.76001-1.69v2.07001l-2.40997,1.07001c-3.85004,1.71002-7.94,2.58002-12.15002,2.58002-.29999,0-.58002-.13-.77002-.37-.19-.23004-.26996-.53003-.20996-.83002,1.02997-5.16998,1.02997-10.42999,0-15.59998-.06-.30005.01996-.60004.20996-.83002.19-.23999.47003-.37.77002-.37,4.21002,0,8.29999.87,12.15002,2.57996l2.40997,1.07001v2.07001ZM27.00002,30v-10h10v10h-10ZM52.63002,40.03998l-6.48999,7.29999-9.70001-15.33997h1.34998l2.81,1.25c2.43005,1.07996,4.94,1.82996,7.51001,2.27997l4.52002,4.51001Z"/>
</svg>