<svg xmlns="http://www.w3.org/2000/svg" xmlns:xlink="http://www.w3.org/1999/xlink" width="200" zoomAndPan="magnify" viewBox="0 0 150 157.92" height="200" preserveAspectRatio="xMidYMid meet" version="1.0"><defs><clipPath id="beb595a848"><path d="M 12.726562 25.144531 L 137 25.144531 L 137 124.84375 L 12.726562 124.84375 Z M 12.726562 25.144531 " clip-rule="nonzero"/></clipPath></defs><g clip-path="url(#beb595a848)"><path fill="#000000" d="M 99.78125 36.515625 C 104.535156 38.660156 108.097656 40.871094 110.8125 43.316406 C 115.742188 47.761719 119.378906 53.34375 127.796875 60.734375 C 131.28125 63.785156 132.726562 67.4375 132.878906 71.183594 C 133.039062 74.933594 131.8125 78.765625 129.777344 81.808594 C 127.738281 84.863281 124.925781 87.054688 122.113281 87.75 C 119.433594 88.40625 116.714844 87.667969 113.914062 85.0625 C 112.5 72.4375 110.875 59.609375 107.027344 49.136719 C 105.25 44.277344 102.753906 40.117188 99.78125 36.515625 Z M 50.164062 36.515625 C 47.195312 40.117188 44.691406 44.277344 42.914062 49.136719 C 39.074219 59.605469 37.449219 72.4375 36.035156 85.0625 C 33.230469 87.667969 30.507812 88.40625 27.828125 87.75 C 25.019531 87.054688 22.210938 84.863281 20.164062 81.808594 C 18.128906 78.765625 16.90625 74.929688 17.0625 71.183594 C 17.222656 67.4375 18.667969 63.785156 22.152344 60.734375 C 30.574219 53.34375 34.203125 47.761719 39.136719 43.316406 C 41.847656 40.871094 45.417969 38.660156 50.164062 36.515625 Z M 74.972656 29.734375 C 77.9375 29.757812 81.453125 30.453125 84.824219 31.273438 C 94.011719 33.492188 99.476562 40.425781 103.183594 50.542969 C 106.886719 60.628906 108.582031 73.585938 110.019531 86.496094 C 110.019531 94.402344 109.574219 102.867188 105.230469 109.199219 C 101.027344 115.289062 93.089844 119.90625 77.027344 120.261719 L 77.027344 108.363281 C 83.230469 107.5 86.035156 102.796875 86.035156 99.394531 C 86.035156 94.871094 81.082031 93.042969 74.964844 93.042969 C 68.855469 93.042969 63.894531 94.871094 63.894531 99.394531 C 63.894531 102.796875 66.707031 107.5 72.914062 108.363281 L 72.914062 120.261719 C 56.855469 119.898438 48.917969 115.289062 44.722656 109.199219 C 40.371094 102.867188 39.933594 94.402344 39.925781 86.496094 C 41.363281 73.585938 43.066406 60.628906 46.761719 50.542969 C 50.46875 40.425781 55.941406 33.492188 65.128906 31.273438 C 68.5 30.457031 72.015625 29.757812 74.972656 29.734375 Z M 74.964844 25.621094 C 71.167969 25.96875 67.261719 26.425781 64.007812 27.3125 C 49.054688 31.402344 41.804688 35.382812 36.386719 40.261719 C 30.953125 45.160156 27.527344 50.550781 19.445312 57.640625 C 15.148438 61.421875 13.167969 66.269531 12.964844 71.003906 C 12.761719 75.746094 14.257812 80.375 16.753906 84.109375 C 19.25 87.835938 22.773438 90.726562 26.855469 91.738281 C 29.757812 92.453125 32.925781 92.0625 35.867188 90.4375 C 36.046875 97.488281 36.949219 105.144531 41.34375 111.539062 C 46.597656 119.167969 56.738281 124.425781 74.964844 124.425781 L 74.972656 124.410156 L 74.988281 124.425781 C 93.210938 124.425781 103.351562 119.171875 108.605469 111.539062 C 113 105.144531 113.898438 97.488281 114.082031 90.4375 C 117.023438 92.0625 120.1875 92.453125 123.09375 91.738281 C 127.175781 90.726562 130.699219 87.839844 133.1875 84.109375 C 135.683594 80.378906 137.179688 75.746094 136.984375 71.003906 C 136.78125 66.269531 134.804688 61.417969 130.496094 57.640625 C 122.414062 50.550781 118.988281 45.160156 113.558594 40.261719 C 108.144531 35.382812 100.886719 31.402344 85.9375 27.3125 C 82.679688 26.425781 78.777344 25.96875 74.988281 25.621094 L 74.96875 25.648438 Z M 74.964844 25.621094 " fill-opacity="1" fill-rule="evenodd"/></g><path fill="#000000" d="M 56.554688 69.75 C 53.773438 69.75 51.519531 72.347656 51.527344 75.5625 C 51.527344 78.765625 53.773438 81.371094 56.554688 81.371094 C 59.34375 81.371094 61.597656 78.765625 61.597656 75.5625 C 61.597656 72.347656 59.34375 69.75 56.554688 69.75 Z M 56.554688 69.75 " fill-opacity="1" fill-rule="evenodd"/><path fill="#000000" d="M 93.371094 69.75 C 96.152344 69.75 98.40625 72.347656 98.40625 75.5625 C 98.40625 78.765625 96.152344 81.371094 93.371094 81.371094 C 90.59375 81.371094 88.339844 78.765625 88.339844 75.5625 C 88.339844 72.347656 90.59375 69.75 93.371094 69.75 Z M 93.371094 69.75 " fill-opacity="1" fill-rule="evenodd"/></svg>