<svg xmlns="http://www.w3.org/2000/svg" width="48" height="48" viewBox="0 0 48 48" fill="none">
  <path d="M24 4C24 4 18 8 18 14C18 20 22 22 24 26C26 22 30 20 30 14C30 8 24 4 24 4Z" stroke="#333" stroke-width="2" stroke-linecap="round" stroke-linejoin="round"/>
  <path d="M10 18C10 18 6 22 6 28C6 34 12 38 18 38H30C36 38 42 34 42 28C42 22 38 18 38 18" stroke="#333" stroke-width="2" stroke-linecap="round" stroke-linejoin="round"/>
  <path d="M14 28H34" stroke="#333" stroke-width="2" stroke-linecap="round"/>
  <path d="M18 34H30" stroke="#333" stroke-width="2" stroke-linecap="round"/>
  <ellipse cx="24" cy="42" rx="8" ry="2" fill="#333" opacity="0.2"/>
</svg>
