<svg xmlns="http://www.w3.org/2000/svg" width="48" height="48" viewBox="0 0 48 48" fill="none">
  <path d="M12 16C12 12 16 8 24 8C32 8 36 12 36 16V20C36 22 34 24 32 24H16C14 24 12 22 12 20V16Z" stroke="#333" stroke-width="2"/>
  <path d="M16 24V28C16 30 18 32 20 32H28C30 32 32 30 32 28V24" stroke="#333" stroke-width="2"/>
  <path d="M24 32V42" stroke="#333" stroke-width="2" stroke-linecap="round"/>
  <path d="M20 42H28" stroke="#333" stroke-width="2" stroke-linecap="round"/>
  <circle cx="20" cy="16" r="2" fill="#333"/>
  <circle cx="28" cy="16" r="2" fill="#333"/>
  <path d="M8 12C8 12 10 10 10 8" stroke="#333" stroke-width="2" stroke-linecap="round"/>
  <path d="M40 12C40 12 38 10 38 8" stroke="#333" stroke-width="2" stroke-linecap="round"/>
</svg>
