<svg xmlns="http://www.w3.org/2000/svg" xmlns:xlink="http://www.w3.org/1999/xlink" width="200" zoomAndPan="magnify" viewBox="0 0 150 157.92" height="200" preserveAspectRatio="xMidYMid meet" version="1.0"><defs><clipPath id="2069ffca17"><path d="M 17.042969 26 L 133 26 L 133 124 L 17.042969 124 Z M 17.042969 26 " clip-rule="nonzero"/></clipPath></defs><g clip-path="url(#2069ffca17)"><path fill="#010104" d="M 34.199219 26.554688 C 35.1875 26.007812 36.398438 26.191406 37.367188 26.675781 C 42.066406 28.8125 46.261719 31.980469 50.035156 35.492188 C 51.488281 36.804688 52.777344 38.277344 54.128906 39.691406 C 67.34375 33.738281 83.160156 33.617188 96.3125 39.789062 C 98.449219 37.1875 100.910156 34.886719 103.472656 32.707031 C 106.417969 30.308594 109.585938 28.109375 113.074219 26.554688 C 114.222656 25.988281 115.738281 26.03125 116.683594 26.9375 C 117.371094 27.523438 117.792969 28.328125 118.15625 29.136719 C 119.894531 33.089844 120.882812 37.371094 121.144531 41.667969 C 121.445312 46.890625 120.558594 52.136719 118.785156 57.042969 C 118.683594 57.304688 118.824219 57.566406 118.90625 57.789062 C 122.171875 65.03125 123.785156 73.019531 123.421875 80.972656 C 125.984375 81.234375 128.527344 81.757812 130.96875 82.625 C 131.773438 82.886719 132.480469 83.472656 132.78125 84.28125 C 133.207031 85.429688 132.640625 86.863281 131.511719 87.328125 C 130.484375 87.8125 129.355469 87.425781 128.34375 87.125 C 126.53125 86.582031 124.695312 86.117188 122.796875 85.875 C 122.496094 87.328125 122.253906 88.78125 121.769531 90.191406 C 124.53125 91.160156 127.214844 92.390625 129.636719 94.027344 C 130.988281 95.015625 130.785156 97.292969 129.414062 98.183594 C 128.546875 98.808594 127.316406 98.644531 126.449219 98.101562 C 125.179688 97.214844 123.765625 96.566406 122.375 95.863281 C 121.609375 95.5 120.859375 95.09375 120.035156 94.894531 C 117.410156 100.804688 113.679688 106.230469 108.960938 110.652344 C 103.796875 115.453125 97.582031 119.125 90.863281 121.242188 C 83.964844 123.464844 76.601562 124.191406 69.402344 123.402344 C 61.632812 122.453125 54.007812 119.890625 47.472656 115.535156 C 39.867188 110.488281 33.753906 103.207031 30.183594 94.792969 C 28.027344 95.71875 25.910156 96.730469 23.933594 98.039062 C 23.003906 98.667969 21.652344 98.765625 20.746094 98.0625 C 19.433594 97.09375 19.433594 94.832031 20.824219 93.925781 C 23.183594 92.351562 25.746094 91.058594 28.449219 90.210938 C 28.046875 88.78125 27.683594 87.304688 27.402344 85.855469 C 25.222656 86.195312 23.085938 86.761719 21.007812 87.449219 C 19.878906 87.832031 18.445312 87.488281 17.839844 86.417969 C 17.074219 85.148438 17.699219 83.390625 19.050781 82.808594 C 21.53125 81.777344 24.234375 81.355469 26.875 80.929688 C 26.613281 73.101562 28.066406 65.214844 31.195312 58.03125 C 31.292969 57.6875 31.578125 57.34375 31.457031 56.980469 C 29.398438 51.070312 28.570312 44.671875 29.519531 38.457031 C 29.984375 35.191406 30.871094 31.980469 32.203125 28.976562 C 32.6875 28.109375 33.191406 27.039062 34.199219 26.554688 M 36.296875 33.152344 C 35.914062 33.878906 35.753906 34.707031 35.511719 35.492188 C 33.59375 42.191406 34.199219 49.453125 36.621094 55.933594 C 36.84375 56.597656 37.144531 57.324219 36.921875 58.03125 C 36.621094 59.019531 36.097656 59.90625 35.753906 60.875 C 33.191406 67.128906 31.820312 73.929688 32.082031 80.707031 C 35.449219 80.769531 38.839844 80.992188 42.167969 81.433594 C 42.914062 81.535156 43.761719 82.039062 43.722656 82.886719 C 43.78125 83.714844 42.976562 84.300781 42.226562 84.402344 C 39 84.582031 35.773438 84.824219 32.566406 85.226562 C 32.6875 86.417969 33.03125 87.546875 33.273438 88.71875 C 36.820312 88.195312 40.414062 87.769531 44.003906 87.769531 C 44.546875 87.789062 45.152344 87.992188 45.476562 88.457031 C 46 89.242188 45.476562 90.433594 44.589844 90.675781 C 43.054688 91.058594 41.503906 91.300781 39.988281 91.683594 C 38.355469 92.046875 36.78125 92.59375 35.167969 92.976562 C 35.1875 93.320312 35.269531 93.664062 35.449219 93.964844 C 39.425781 102.21875 46.039062 109.238281 54.191406 113.476562 C 61.3125 117.207031 69.480469 118.800781 77.488281 118.4375 C 86.203125 118.035156 94.839844 115.128906 101.816406 109.863281 C 107.488281 105.648438 111.945312 99.9375 114.992188 93.5625 C 115.03125 93.421875 115.113281 93.136719 115.152344 92.976562 C 113.902344 92.695312 112.671875 92.269531 111.421875 91.96875 C 109.625 91.484375 107.789062 91.160156 105.972656 90.757812 C 105.085938 90.617188 104.421875 89.625 104.742188 88.757812 C 104.984375 88.03125 105.832031 87.710938 106.558594 87.730469 C 110.027344 87.730469 113.5 88.113281 116.925781 88.636719 C 117.289062 87.507812 117.472656 86.359375 117.753906 85.207031 C 114.769531 84.804688 111.785156 84.582031 108.777344 84.421875 C 108.273438 84.402344 107.707031 84.441406 107.304688 84.097656 C 106.742188 83.714844 106.417969 82.929688 106.761719 82.28125 C 107.023438 81.757812 107.566406 81.476562 108.132812 81.433594 C 111.460938 80.972656 114.808594 80.707031 118.179688 80.667969 C 118.398438 73.484375 116.867188 66.300781 113.941406 59.746094 C 113.617188 59 113.214844 58.253906 113.214844 57.425781 C 113.195312 56.859375 113.417969 56.316406 113.617188 55.8125 C 116.34375 48.667969 116.828125 40.515625 114.125 33.292969 C 113.902344 32.628906 112.992188 32.464844 112.449219 32.828125 C 107.707031 35.59375 103.652344 39.347656 99.941406 43.320312 C 99.316406 43.988281 98.792969 44.753906 98.046875 45.296875 C 97.238281 45.742188 96.269531 45.5 95.503906 45.078125 C 89.453125 42.011719 82.675781 40.457031 75.894531 40.375 C 68.714844 40.273438 61.472656 41.769531 55.039062 44.976562 C 54.332031 45.339844 53.523438 45.703125 52.699219 45.480469 C 51.972656 45.320312 51.589844 44.613281 51.105469 44.109375 C 47.292969 39.808594 43.015625 35.875 38.074219 32.910156 C 37.570312 32.566406 36.679688 32.585938 36.296875 33.152344 Z M 36.296875 33.152344 " fill-opacity="1" fill-rule="nonzero"/></g><path fill="#010104" d="M 50.621094 72.558594 C 53.464844 71.910156 56.589844 73.566406 57.679688 76.25 C 58.667969 78.46875 58.183594 81.273438 56.46875 83.007812 C 54.433594 85.226562 50.722656 85.691406 48.28125 83.875 C 46.203125 82.503906 45.152344 79.820312 45.699219 77.398438 C 46.203125 75.019531 48.21875 73.042969 50.621094 72.558594 Z M 50.621094 72.558594 " fill-opacity="1" fill-rule="nonzero"/><path fill="#010104" d="M 97.378906 72.558594 C 100.707031 71.789062 104.320312 74.152344 104.945312 77.5 C 105.628906 80.648438 103.433594 83.996094 100.34375 84.804688 C 96.957031 85.832031 93.082031 83.414062 92.417969 79.960938 C 91.671875 76.652344 94.113281 73.164062 97.378906 72.558594 Z M 97.378906 72.558594 " fill-opacity="1" fill-rule="nonzero"/><path fill="#010104" d="M 71.71875 83.332031 C 73.457031 83.171875 75.191406 83.3125 76.925781 83.269531 C 77.832031 83.269531 78.902344 83.128906 79.609375 83.816406 C 80.214844 84.339844 80.253906 85.328125 79.769531 85.953125 C 79.003906 87.066406 78.035156 87.992188 77.1875 89.023438 C 76.824219 89.445312 76.480469 89.890625 76.039062 90.230469 C 75.472656 90.554688 74.625 90.636719 74.140625 90.109375 C 73.253906 89.242188 72.546875 88.214844 71.679688 87.347656 C 71.09375 86.621094 70.246094 85.933594 70.289062 84.925781 C 70.269531 84.097656 70.972656 83.453125 71.71875 83.332031 Z M 71.71875 83.332031 " fill-opacity="1" fill-rule="nonzero"/><path fill="#010104" d="M 63.609375 92.167969 C 64.035156 91.683594 64.839844 91.664062 65.324219 92.089844 C 65.710938 92.410156 65.75 92.9375 65.851562 93.398438 C 66.050781 94.773438 67.101562 96.042969 68.492188 96.324219 C 70.027344 96.75 71.742188 95.921875 72.507812 94.570312 C 72.972656 93.90625 73.171875 92.9375 74.019531 92.652344 C 75.109375 92.308594 76.644531 92.332031 77.246094 93.480469 C 77.832031 94.570312 78.5 95.761719 79.75 96.183594 C 81.644531 97.070312 84.105469 95.820312 84.589844 93.804688 C 84.753906 93.199219 84.730469 92.410156 85.316406 92.027344 C 85.902344 91.5625 86.871094 91.847656 87.09375 92.574219 C 87.273438 93.359375 86.972656 94.125 86.707031 94.851562 C 85.902344 97.132812 83.644531 98.910156 81.203125 98.910156 C 79.105469 99.007812 77.085938 97.777344 75.957031 96.0625 C 75.675781 95.660156 75.492188 95.195312 75.148438 94.851562 C 74.261719 96.707031 72.6875 98.382812 70.589844 98.808594 C 69.179688 99.050781 67.644531 98.929688 66.433594 98.121094 C 64.882812 97.191406 63.851562 95.558594 63.429688 93.804688 C 63.289062 93.238281 63.207031 92.59375 63.609375 92.167969 Z M 63.609375 92.167969 " fill-opacity="1" fill-rule="nonzero"/></svg>