<svg xmlns="http://www.w3.org/2000/svg" viewBox="0 0 64 64" fill="none" stroke="currentColor" stroke-width="2.5" stroke-linecap="round" stroke-linejoin="round">
  <!-- Mão acariciando -->
  <path d="M12 40 C12 32, 20 28, 28 32 L36 36"/>
  <path d="M36 36 C40 34, 44 36, 44 40 L44 48 C44 52, 40 56, 32 56 L20 56 C16 56, 12 52, 12 48 L12 40"/>
  <!-- Dedos -->
  <path d="M28 32 L28 24 C28 20, 32 20, 32 24 L32 32"/>
  <path d="M32 28 L36 20 C38 16, 42 18, 40 22 L36 32"/>
  <!-- Cabeça do cachorro -->
  <ellipse cx="48" cy="24" rx="10" ry="8"/>
  <circle cx="52" cy="22" r="2"/>
  <ellipse cx="44" cy="30" rx="4" ry="3"/>
</svg>
