<svg xmlns="http://www.w3.org/2000/svg" xmlns:xlink="http://www.w3.org/1999/xlink" width="200" zoomAndPan="magnify" viewBox="0 0 150 149.999998" height="200" preserveAspectRatio="xMidYMid meet" version="1.0"><defs><clipPath id="68b7b28a43"><path d="M 7.5 23.085938 L 142.5 23.085938 L 142.5 126.585938 L 7.5 126.585938 Z M 7.5 23.085938 " clip-rule="nonzero"/></clipPath></defs><path fill="#000000" d="M 89.460938 68.46875 C 88.757812 68.46875 88.183594 69.039062 88.183594 69.742188 C 88.183594 70.445312 88.757812 71.015625 89.460938 71.015625 C 90.167969 71.015625 90.742188 70.445312 90.742188 69.742188 C 90.742188 69.039062 90.167969 68.46875 89.460938 68.46875 Z M 89.460938 68.46875 " fill-opacity="1" fill-rule="nonzero"/><g clip-path="url(#68b7b28a43)"><path fill="#000000" d="M 142.132812 90.488281 C 142.011719 89.46875 141.398438 89.042969 141.046875 88.875 C 140.871094 88.792969 140.6875 88.742188 140.496094 88.714844 C 141.28125 87.410156 141.972656 85.855469 141.828125 84.558594 C 141.742188 83.800781 141.386719 83.167969 140.792969 82.726562 C 138.988281 81.382812 136.941406 82.738281 134.964844 84.050781 C 133.511719 85.015625 132.007812 86.011719 130.664062 86.011719 C 130.28125 86.011719 129.769531 85.925781 129.1875 85.789062 C 129.121094 85.15625 129.039062 84.527344 128.917969 83.917969 C 128.742188 83.019531 128.554688 82.113281 128.347656 81.203125 C 128.859375 81.375 129.367188 81.488281 129.871094 81.488281 C 130.007812 81.488281 130.148438 81.480469 130.285156 81.46875 C 131.242188 81.378906 132.144531 80.960938 132.933594 80.25 C 134.519531 81.183594 136.773438 81.617188 139.53125 79.738281 C 140.015625 79.40625 140.140625 78.746094 139.808594 78.261719 C 139.476562 77.777344 138.8125 77.652344 138.328125 77.984375 C 137.214844 78.742188 136.203125 79.035156 135.234375 78.875 C 135.863281 78.222656 136.257812 77.320312 136.257812 76.324219 C 136.257812 74.34375 134.699219 72.730469 132.785156 72.730469 C 130.875 72.730469 129.316406 74.34375 129.316406 76.324219 C 129.316406 77.496094 129.867188 78.527344 130.703125 79.183594 C 130.5 79.269531 130.292969 79.332031 130.082031 79.351562 C 129.347656 79.425781 128.507812 79.085938 127.636719 78.414062 C 125.621094 71.265625 121.886719 64.285156 112.722656 59.753906 C 112.199219 56.945312 111.277344 54.472656 109.964844 52.359375 C 109.945312 52.335938 109.9375 52.304688 109.914062 52.277344 C 109.011719 50.84375 107.933594 49.566406 106.667969 48.46875 C 102.53125 44.871094 97.449219 43.464844 92.296875 43.101562 C 92.273438 43.101562 92.253906 43.09375 92.234375 43.097656 C 86.996094 42.738281 81.683594 43.453125 77.199219 44.0625 C 74.308594 44.453125 71.8125 44.792969 69.847656 44.792969 C 62.964844 44.792969 51.277344 42.945312 45.109375 40.652344 C 45.109375 40.652344 45.109375 40.652344 45.105469 40.652344 C 45.101562 40.648438 45.097656 40.648438 45.09375 40.648438 C 44.136719 40.292969 43.304688 39.925781 42.652344 39.554688 C 41.128906 38.679688 40.128906 37.078125 39.066406 35.378906 C 38.273438 34.105469 37.4375 32.8125 36.339844 31.6875 C 38.308594 28.523438 35.742188 23.941406 35.621094 23.730469 C 35.363281 23.28125 34.816406 23.085938 34.332031 23.257812 C 33.671875 23.496094 28.539062 25.445312 27.300781 28.554688 C 24.929688 27.707031 23.039062 26.105469 21.542969 23.699219 C 21.316406 23.332031 20.898438 23.136719 20.46875 23.207031 C 20.046875 23.273438 19.703125 23.585938 19.601562 24.003906 C 18.851562 27.054688 19.167969 29.613281 20.570312 31.789062 C 17.515625 34.210938 15.765625 37.511719 14.980469 39.324219 C 14.671875 40.035156 14.148438 40.628906 13.457031 41.035156 L 11.644531 42.105469 C 11.644531 42.105469 11.640625 42.109375 11.636719 42.109375 L 9.492188 43.382812 C 8.316406 44.078125 7.6875 45.386719 7.886719 46.71875 C 8.359375 49.878906 9.738281 52.113281 11.765625 53.011719 C 13.316406 53.703125 14.925781 53.878906 16.628906 54.0625 C 18.835938 54.300781 21.117188 54.546875 23.363281 56.019531 C 26.953125 58.375 28.964844 64.757812 29.25 68.535156 C 29.347656 69.835938 29.203125 70.925781 29.050781 72.078125 C 28.808594 73.914062 28.554688 75.8125 29.28125 78.558594 C 29.570312 79.660156 30 80.453125 30.496094 81.050781 C 30.832031 82.207031 32.480469 88.0625 32.597656 91.996094 C 32.671875 94.542969 32.554688 97.21875 32.441406 99.011719 C 32.382812 99.9375 31.96875 100.746094 31.304688 101.226562 C 29.597656 102.464844 28.578125 104.484375 28.578125 106.625 C 28.578125 107.210938 29.054688 107.6875 29.644531 107.6875 L 33.667969 107.6875 C 33.65625 107.851562 33.636719 107.996094 33.636719 108.171875 C 33.636719 108.757812 34.113281 109.234375 34.703125 109.234375 L 42.421875 109.234375 C 43.066406 109.234375 43.6875 109.003906 44.171875 108.582031 C 45.105469 107.769531 46.253906 106.5625 46.574219 105.359375 C 46.578125 105.351562 46.582031 105.339844 46.585938 105.328125 C 46.59375 105.292969 46.609375 105.257812 46.617188 105.222656 C 46.804688 104.355469 46.753906 103.6875 46.707031 103.097656 C 46.6875 102.847656 46.671875 102.617188 46.671875 102.378906 C 48.945312 103.417969 51.378906 104.300781 53.542969 105.078125 C 54.898438 105.5625 56.339844 106.082031 57.480469 106.566406 C 57.867188 110.625 57.894531 114.828125 57.53125 119.082031 C 57.425781 120.304688 58.257812 121.425781 59.460938 121.6875 C 59.914062 121.789062 60.355469 121.835938 60.785156 121.835938 C 61.128906 121.835938 61.460938 121.796875 61.789062 121.734375 C 61.796875 122.039062 61.804688 122.320312 61.808594 122.566406 C 61.820312 123.148438 62.292969 123.609375 62.875 123.609375 L 66.582031 123.609375 C 67.96875 123.609375 69.226562 122.792969 69.78125 121.527344 L 69.820312 121.441406 L 71.285156 121.441406 C 71.574219 121.441406 71.847656 121.324219 72.050781 121.121094 C 72.25 120.914062 72.359375 120.640625 72.351562 120.351562 L 72.089844 109.300781 C 79.511719 111.097656 88.5 112.121094 96.9375 112.121094 C 97.910156 112.121094 98.878906 112.105469 99.835938 112.078125 C 99.960938 112.101562 100.085938 112.128906 100.207031 112.152344 L 100.207031 115.777344 C 100.207031 116.449219 99.191406 117.503906 98.335938 117.699219 L 89.117188 120.074219 C 88.667969 120.1875 88.34375 120.585938 88.320312 121.050781 C 88.296875 121.511719 88.578125 121.9375 89.015625 122.097656 C 90.050781 122.476562 91.136719 122.839844 92.289062 123.125 C 92.136719 123.3125 92.042969 123.550781 92.042969 123.804688 C 92.050781 124.273438 92.367188 124.683594 92.816406 124.8125 C 96.929688 125.980469 100.808594 126.566406 104.507812 126.566406 C 108.222656 126.566406 111.753906 125.972656 115.152344 124.792969 C 115.539062 124.660156 115.8125 124.320312 115.863281 123.914062 C 115.878906 123.777344 115.855469 123.640625 115.820312 123.511719 C 117.175781 123.226562 118.3125 122.261719 118.773438 120.914062 L 119.207031 119.652344 L 121.203125 119.652344 C 121.539062 119.652344 121.859375 119.492188 122.0625 119.222656 C 122.261719 118.949219 122.320312 118.597656 122.21875 118.277344 C 121.390625 115.621094 121.34375 113.175781 122.058594 110.820312 C 123.351562 110.433594 124.507812 109.972656 125.4375 109.414062 C 128.851562 107.347656 132.640625 103.203125 134.109375 101.515625 C 134.375 101.210938 134.722656 100.976562 135.109375 100.839844 C 135.726562 100.617188 136.59375 100.195312 137.207031 99.429688 C 137.648438 98.878906 137.910156 98.164062 137.988281 97.3125 C 138.042969 96.738281 138.289062 96.226562 138.683594 95.875 C 142.386719 92.578125 142.195312 91.003906 142.132812 90.488281 Z M 132.789062 74.855469 C 133.527344 74.855469 134.125 75.515625 134.125 76.324219 C 134.125 77.136719 133.527344 77.796875 132.789062 77.796875 C 132.050781 77.796875 131.449219 77.136719 131.449219 76.324219 C 131.449219 75.515625 132.050781 74.855469 132.789062 74.855469 Z M 107.269531 52.179688 C 105.976562 52.242188 104.621094 51.976562 103.496094 51.386719 C 102.320312 50.773438 100.980469 50.671875 99.71875 51.09375 C 98.328125 51.5625 96.25 51.925781 94.242188 50.988281 C 92.015625 49.953125 92.609375 46.78125 93.023438 45.308594 C 97.488281 45.742188 101.796875 47.050781 105.269531 50.070312 C 106.007812 50.710938 106.675781 51.414062 107.269531 52.179688 Z M 45.261719 42.953125 C 50.28125 44.660156 57.839844 46.046875 64.199219 46.625 C 63.863281 48.207031 62.839844 51.101562 59.832031 51.601562 C 57.125 52.050781 54.597656 51.148438 52.953125 50.3125 C 51.503906 49.578125 49.878906 49.449219 48.386719 49.957031 C 47.183594 50.363281 45.546875 50.667969 44.566406 49.808594 C 43.5 48.871094 44.273438 45.460938 45.261719 42.953125 Z M 34.171875 25.613281 C 34.753906 26.960938 35.621094 29.617188 34.175781 31.035156 C 32.988281 32.199219 31.476562 32.3125 30.5 31.90625 C 30 31.695312 29.164062 31.160156 29.164062 29.90625 C 29.164062 28.273438 32.125 26.515625 34.171875 25.613281 Z M 21.34375 26.992188 C 22.285156 28.054688 23.339844 28.917969 24.511719 29.59375 C 23.742188 29.867188 23.023438 30.199219 22.355469 30.585938 C 21.683594 29.519531 21.335938 28.34375 21.34375 26.992188 Z M 9.996094 46.40625 C 9.925781 45.933594 10.152344 45.464844 10.582031 45.210938 L 12.371094 44.152344 C 13.132812 44.398438 14.835938 45.09375 15.359375 46.5 C 15.871094 47.867188 15.371094 50.261719 14.957031 51.703125 C 14.132812 51.570312 13.347656 51.390625 12.632812 51.074219 C 10.828125 50.269531 10.203125 47.804688 9.996094 46.40625 Z M 24.53125 54.246094 C 21.949219 52.550781 19.382812 52.226562 17.097656 51.976562 C 17.535156 50.382812 18.074219 47.675781 17.359375 45.761719 C 16.824219 44.328125 15.671875 43.398438 14.617188 42.816406 C 15.660156 42.179688 16.464844 41.269531 16.941406 40.167969 C 18.015625 37.695312 21.105469 32.070312 27.195312 31.089844 C 27.535156 32.335938 28.40625 33.332031 29.679688 33.867188 C 30.308594 34.128906 30.972656 34.253906 31.640625 34.253906 C 32.757812 34.253906 33.882812 33.890625 34.859375 33.210938 C 35.777344 34.160156 36.507812 35.296875 37.261719 36.503906 C 38.417969 38.351562 39.609375 40.257812 41.597656 41.398438 C 42.070312 41.667969 42.644531 41.933594 43.265625 42.199219 C 42.355469 44.484375 40.808594 49.34375 43.160156 51.40625 C 44.539062 52.617188 46.582031 52.816406 49.070312 51.972656 C 50.019531 51.648438 51.050781 51.734375 51.984375 52.207031 C 53.550781 53.003906 55.808594 53.847656 58.359375 53.847656 C 58.953125 53.847656 59.5625 53.800781 60.183594 53.699219 C 64.214844 53.03125 65.882812 49.339844 66.351562 46.800781 C 67.597656 46.878906 68.777344 46.921875 69.851562 46.921875 C 71.960938 46.921875 74.523438 46.574219 77.492188 46.171875 C 81.496094 45.625 86.203125 45 90.855469 45.171875 C 90.328125 47.3125 89.882812 51.308594 93.34375 52.917969 C 95.988281 54.148438 98.640625 53.703125 100.402344 53.109375 C 101.105469 52.875 101.851562 52.933594 102.507812 53.273438 C 103.839844 53.96875 105.375 54.328125 106.886719 54.328125 C 107.453125 54.328125 108.007812 54.257812 108.558594 54.15625 C 109.308594 55.503906 109.894531 57.003906 110.316406 58.675781 C 107.519531 57.539062 104.289062 56.597656 100.53125 55.910156 C 98.066406 55.460938 95.6875 55.265625 93.390625 55.238281 C 92.589844 54.652344 91.664062 54.101562 90.613281 53.601562 C 89.839844 53.230469 89.21875 52.621094 88.867188 51.882812 C 87.234375 48.441406 84.847656 46.542969 82.148438 46.542969 C 78.542969 46.542969 76.390625 49.34375 75.425781 51.011719 C 75.078125 51.617188 74.566406 52.097656 73.953125 52.402344 C 72.058594 53.335938 68.878906 55.367188 68.878906 58.480469 C 68.878906 59.617188 69.226562 60.660156 69.875 61.566406 C 68.667969 62.257812 67.582031 62.933594 66.660156 63.558594 C 67.265625 61.648438 67.398438 59.664062 67.054688 57.621094 C 67.007812 57.339844 66.84375 57.085938 66.605469 56.921875 C 66.367188 56.761719 66.070312 56.699219 65.789062 56.757812 C 64.4375 57.027344 63.191406 57.441406 62.027344 57.964844 C 61.832031 57.195312 61.492188 56.441406 60.96875 55.722656 C 60.636719 55.265625 60.007812 55.148438 59.53125 55.453125 C 54.617188 58.589844 52.476562 62.703125 53.144531 67.6875 C 52.0625 68.394531 49.707031 70.050781 47.558594 72.375 C 46.1875 73.851562 45.152344 75.636719 44.238281 77.210938 C 43.488281 78.5 42.78125 79.722656 42.199219 80.167969 C 41.046875 81.054688 39.746094 81.625 38.328125 81.867188 C 37.722656 81.972656 37.1875 82.246094 36.75 82.617188 C 35.949219 81.738281 34.996094 81.324219 34.128906 80.953125 C 33.542969 80.703125 33.035156 80.476562 32.601562 80.140625 C 33.085938 77.453125 34.039062 74.449219 34.871094 73.894531 C 35.585938 73.417969 36.070312 73.40625 36.804688 73.394531 C 37.539062 73.378906 38.453125 73.359375 39.632812 72.828125 C 42.050781 71.742188 44.972656 68.128906 44.171875 64.179688 C 43.917969 62.921875 42.773438 60.875 37.929688 61.320312 C 36.859375 61.417969 35.820312 61.039062 35.09375 60.277344 C 33.960938 59.09375 32.816406 58.492188 31.699219 58.492188 C 30.476562 58.492188 29.542969 58.976562 28.871094 59.503906 C 27.800781 57.378906 26.371094 55.453125 24.53125 54.246094 Z M 71.769531 60.535156 C 71.265625 59.941406 71.011719 59.261719 71.011719 58.476562 C 71.011719 56.441406 73.730469 54.878906 74.898438 54.304688 C 75.894531 53.8125 76.714844 53.039062 77.273438 52.070312 C 78.007812 50.796875 79.617188 48.667969 82.148438 48.667969 C 84.613281 48.667969 86.210938 51.25 86.941406 52.792969 C 87.453125 53.875 88.335938 54.765625 89.421875 55.355469 C 82.335938 55.933594 76.304688 58.191406 71.769531 60.535156 Z M 60.050781 59.011719 C 58.273438 60.136719 56.761719 61.605469 55.527344 63.421875 C 56.140625 61.324219 57.535156 59.480469 59.765625 57.859375 C 59.9375 58.238281 60.015625 58.625 60.050781 59.011719 Z M 40.601562 101.886719 C 40.945312 100.871094 40.9375 99.832031 40.90625 99.386719 C 40.902344 99.277344 40.875 99.140625 40.859375 99.015625 C 41.957031 99.792969 43.238281 100.609375 44.632812 101.367188 C 44.523438 102 44.53125 102.527344 44.5625 102.992188 C 43.390625 102.359375 42.066406 101.988281 40.601562 101.886719 Z M 38.105469 96.820312 C 38.414062 97.867188 38.746094 98.992188 38.78125 99.53125 C 38.824219 100.183594 38.734375 100.945312 38.46875 101.480469 C 37.441406 100.695312 36.007812 100.21875 34.40625 100.117188 C 34.484375 99.800781 34.546875 99.480469 34.566406 99.144531 C 34.683594 97.308594 34.804688 94.5625 34.726562 91.933594 C 34.640625 89.050781 33.824219 85.332031 33.195312 82.867188 C 33.226562 82.878906 33.257812 82.894531 33.289062 82.90625 C 34.257812 83.320312 35.023438 83.648438 35.558594 84.574219 C 35.582031 84.613281 35.601562 84.648438 35.621094 84.6875 C 35.582031 84.976562 35.5625 85.273438 35.601562 85.578125 L 36.667969 93.871094 C 36.816406 94.988281 37.328125 96.007812 38.105469 96.820312 Z M 31.125 77.023438 C 30.792969 75.199219 30.972656 73.808594 31.164062 72.355469 C 31.324219 71.144531 31.488281 69.898438 31.375 68.375 C 31.234375 66.507812 30.71875 64 29.773438 61.546875 C 30.125 61.160156 30.78125 60.613281 31.703125 60.613281 C 32.199219 60.613281 32.855469 61.015625 33.550781 61.742188 C 34.730469 62.972656 36.394531 63.59375 38.125 63.433594 C 39.222656 63.332031 41.8125 63.246094 42.085938 64.597656 C 42.640625 67.316406 40.519531 70.097656 38.757812 70.890625 C 37.976562 71.242188 37.414062 71.253906 36.761719 71.265625 C 35.902344 71.28125 34.925781 71.300781 33.6875 72.121094 C 32.496094 72.917969 31.660156 75.082031 31.125 77.023438 Z M 30.835938 105.5625 C 31.082031 104.511719 31.6875 103.578125 32.5625 102.945312 C 32.84375 102.738281 33.101562 102.5 33.332031 102.234375 C 34.722656 102.15625 35.871094 102.425781 36.664062 102.84375 C 35.417969 103.652344 34.582031 104.46875 34.113281 105.5625 Z M 42.769531 106.984375 C 42.675781 107.066406 42.554688 107.109375 42.421875 107.109375 L 35.835938 107.109375 C 36.023438 105.921875 36.707031 105.21875 38.816406 104.019531 C 41.03125 103.847656 42.828125 104.269531 44.277344 105.316406 C 43.976562 105.796875 43.445312 106.390625 42.769531 106.984375 Z M 59.914062 119.613281 C 59.75 119.578125 59.640625 119.429688 59.65625 119.261719 C 59.976562 115.480469 59.992188 111.734375 59.738281 108.085938 C 60.898438 110.195312 61.460938 115.679688 61.6875 119.578125 C 61.144531 119.738281 60.5625 119.753906 59.914062 119.613281 Z M 72.851562 107.292969 C 74.257812 105.183594 75.007812 102.457031 75.117188 99.003906 C 75.136719 98.417969 74.675781 97.929688 74.085938 97.910156 C 73.488281 97.878906 73.003906 98.351562 72.988281 98.9375 C 72.871094 102.648438 71.960938 105.355469 70.214844 107.21875 C 70.203125 107.230469 70.199219 107.25 70.1875 107.261719 C 70.144531 107.3125 70.117188 107.367188 70.085938 107.425781 C 70.046875 107.488281 70.007812 107.554688 69.984375 107.625 C 69.980469 107.644531 69.96875 107.65625 69.960938 107.675781 C 69.949219 107.71875 69.960938 107.765625 69.953125 107.8125 C 69.945312 107.863281 69.925781 107.914062 69.925781 107.96875 L 70.195312 119.3125 L 69.125 119.3125 C 68.703125 119.3125 68.320312 119.5625 68.148438 119.949219 L 67.828125 120.671875 C 67.613281 121.164062 67.125 121.484375 66.582031 121.484375 L 63.910156 121.484375 C 63.800781 118.273438 63.308594 109.339844 61.269531 106.503906 C 60.425781 105.332031 58.175781 104.480469 54.265625 103.078125 C 51.992188 102.261719 49.410156 101.335938 47.097656 100.242188 C 44.105469 98.824219 41.550781 96.964844 39.933594 95.652344 C 39.296875 95.132812 38.886719 94.402344 38.785156 93.597656 L 37.71875 85.304688 C 37.636719 84.660156 38.0625 84.070312 38.691406 83.960938 C 40.453125 83.65625 42.074219 82.945312 43.5 81.851562 C 44.414062 81.144531 45.191406 79.8125 46.085938 78.269531 C 46.941406 76.792969 47.914062 75.117188 49.125 73.8125 C 51.746094 70.980469 54.816406 69.140625 54.847656 69.121094 C 54.855469 69.117188 54.859375 69.109375 54.867188 69.105469 C 54.902344 69.082031 54.929688 69.050781 54.960938 69.023438 C 55.03125 68.96875 55.09375 68.914062 55.144531 68.84375 C 55.175781 68.800781 55.195312 68.757812 55.21875 68.710938 C 55.246094 68.664062 55.285156 68.621094 55.300781 68.570312 C 57.148438 63.492188 60.355469 60.382812 65.085938 59.101562 C 65.273438 61.789062 64.449219 64.285156 62.59375 66.707031 C 62.257812 67.144531 62.3125 67.765625 62.71875 68.136719 C 63.125 68.507812 63.75 68.507812 64.160156 68.136719 C 64.3125 68 79.648438 54.257812 100.148438 58 C 104.585938 58.808594 108.246094 59.96875 111.285156 61.402344 C 111.34375 61.4375 111.402344 61.46875 111.46875 61.488281 C 122.378906 66.726562 125.113281 75.539062 126.828125 84.320312 C 126.878906 84.589844 126.917969 84.867188 126.960938 85.144531 C 125.183594 84.554688 123.089844 83.746094 121.027344 82.945312 C 117.472656 81.566406 113.796875 80.144531 111.183594 79.617188 C 107.84375 78.945312 102.847656 79.058594 99.277344 79.265625 C 99.441406 76.867188 100.097656 75.253906 100.738281 73.691406 C 101.363281 72.167969 101.953125 70.726562 101.945312 68.839844 C 101.945312 63.261719 96.957031 58.71875 90.824219 58.71875 C 85.527344 58.71875 81.089844 62.109375 79.980469 66.628906 C 77.945312 69.320312 74.789062 70.484375 70.332031 70.15625 C 69.390625 70.082031 68.503906 70.597656 68.089844 71.460938 C 67.679688 72.3125 67.824219 73.300781 68.457031 73.984375 C 70.09375 75.75 73.660156 76.6875 78.402344 76.6875 C 79.953125 76.6875 81.644531 76.574219 83.417969 76.367188 C 83.933594 76.789062 84.488281 77.164062 85.082031 77.488281 C 83.449219 80.339844 79.609375 88.691406 83.554688 98.773438 C 85.824219 104.578125 89.671875 107.960938 93.550781 109.925781 C 86.398438 109.703125 79.078125 108.78125 72.851562 107.292969 Z M 79.765625 69.894531 C 79.953125 71.554688 80.589844 73.097656 81.558594 74.425781 C 75.960938 74.875 71.542969 74.179688 70.023438 72.542969 C 70.003906 72.523438 69.960938 72.480469 70.007812 72.386719 C 70.046875 72.308594 70.117188 72.269531 70.175781 72.277344 C 74.222656 72.570312 77.382812 71.785156 79.765625 69.894531 Z M 98.835938 119.765625 C 100.492188 119.390625 102.339844 117.605469 102.339844 115.773438 L 102.339844 112.464844 C 102.96875 112.53125 103.539062 112.574219 104.039062 112.597656 L 104.039062 118.429688 C 104.039062 118.933594 103.714844 119.375 103.230469 119.523438 L 96.660156 121.570312 C 95.480469 121.558594 94.367188 121.417969 93.316406 121.1875 Z M 97.085938 123.664062 L 103.867188 121.550781 C 105.246094 121.125 106.167969 119.867188 106.167969 118.429688 L 106.167969 112.617188 C 106.707031 112.609375 107.28125 112.601562 107.875 112.585938 L 107.875 118.304688 C 107.875 119.761719 108.609375 121.101562 109.84375 121.890625 L 112.289062 123.445312 C 107.574219 124.691406 102.558594 124.761719 97.085938 123.664062 Z M 111.148438 112.453125 C 111.460938 115.0625 111.402344 117.578125 110.960938 120.074219 C 110.363281 119.679688 110.003906 119.023438 110.003906 118.304688 L 110.003906 112.511719 C 110.378906 112.496094 110.761719 112.476562 111.148438 112.453125 Z M 119.816406 117.53125 L 118.441406 117.53125 C 117.988281 117.53125 117.582031 117.820312 117.433594 118.25 L 116.757812 120.230469 C 116.5 120.980469 115.792969 121.484375 115 121.484375 L 113.164062 121.484375 L 112.894531 121.3125 C 113.5 118.382812 113.628906 115.359375 113.277344 112.300781 C 115.457031 112.117188 117.675781 111.835938 119.710938 111.414062 C 119.308594 113.378906 119.339844 115.425781 119.816406 117.53125 Z M 137.261719 94.292969 C 136.464844 95.003906 135.96875 96.007812 135.867188 97.117188 C 135.828125 97.546875 135.710938 97.890625 135.535156 98.109375 C 135.238281 98.484375 134.75 98.710938 134.394531 98.839844 C 133.660156 99.097656 133.003906 99.542969 132.5 100.125 C 131.097656 101.734375 127.492188 105.6875 124.332031 107.597656 C 121.285156 109.441406 114.273438 110.496094 105.105469 110.496094 C 101.660156 110.496094 90.078125 109.597656 85.542969 98.003906 C 81.863281 88.609375 85.71875 80.664062 87.054688 78.351562 C 88.234375 78.738281 89.5 78.960938 90.824219 78.960938 C 91.414062 78.960938 91.890625 78.488281 91.890625 77.898438 C 91.890625 77.3125 91.414062 76.835938 90.824219 76.835938 C 85.867188 76.835938 81.835938 73.25 81.835938 68.84375 C 81.835938 64.433594 85.867188 60.847656 90.824219 60.847656 C 95.78125 60.847656 99.8125 64.433594 99.8125 68.847656 C 99.820312 70.316406 99.332031 71.511719 98.765625 72.890625 C 98.066406 74.597656 97.289062 76.519531 97.140625 79.414062 C 95.910156 79.511719 95.089844 79.59375 94.972656 79.609375 C 94.386719 79.671875 93.964844 80.191406 94.027344 80.777344 C 94.085938 81.359375 94.609375 81.78125 95.199219 81.722656 C 95.300781 81.710938 105.511719 80.648438 110.765625 81.707031 C 113.199219 82.195312 116.785156 83.585938 120.253906 84.929688 C 123.039062 86.011719 125.710938 87.042969 127.832031 87.632812 C 127.855469 87.640625 127.878906 87.644531 127.90625 87.652344 C 128.132812 87.714844 128.359375 87.777344 128.574219 87.828125 C 128.863281 88.019531 129.886719 88.804688 129.886719 90.257812 C 129.886719 91.078125 129.421875 92.089844 128.578125 93.09375 C 127.867188 93.945312 127.789062 95.171875 128.382812 96.144531 C 128.589844 96.488281 128.628906 96.867188 128.503906 97.3125 C 128.21875 98.339844 123.238281 101.332031 118.558594 101.714844 C 117.503906 101.800781 116.648438 102.617188 116.527344 103.65625 C 116.5 103.882812 116.421875 104.101562 116.296875 104.304688 C 114.921875 105.191406 104.738281 106.855469 96.746094 101.761719 C 88.628906 96.585938 91.703125 86.75 91.835938 86.332031 C 92.019531 85.773438 91.710938 85.175781 91.152344 84.996094 C 90.59375 84.8125 89.992188 85.117188 89.808594 85.675781 C 89.773438 85.792969 86.078125 97.480469 95.59375 103.550781 C 100.195312 106.484375 105.453125 107.429688 109.730469 107.429688 C 114.0625 107.429688 117.382812 106.457031 117.988281 105.597656 C 118.351562 105.078125 118.574219 104.507812 118.644531 103.898438 C 118.652344 103.84375 118.714844 103.832031 118.730469 103.832031 C 123.6875 103.425781 129.878906 100.3125 130.558594 97.878906 C 130.839844 96.867188 130.714844 95.886719 130.203125 95.042969 C 130.082031 94.839844 130.085938 94.613281 130.214844 94.457031 C 131.039062 93.472656 132.019531 91.945312 132.019531 90.257812 C 132.019531 89.378906 131.796875 88.664062 131.496094 88.0625 C 133.171875 87.789062 134.742188 86.753906 136.144531 85.820312 C 137.507812 84.917969 138.914062 83.988281 139.519531 84.433594 C 139.617188 84.503906 139.683594 84.59375 139.707031 84.796875 C 139.839844 86 138.203125 88.519531 136.996094 89.925781 C 136.652344 90.328125 136.65625 90.921875 137.003906 91.316406 C 137.351562 91.714844 137.941406 91.800781 138.382812 91.511719 C 138.925781 91.160156 139.652344 90.859375 140.019531 90.8125 C 139.992188 91.226562 139.40625 92.382812 137.261719 94.292969 Z M 137.261719 94.292969 " fill-opacity="1" fill-rule="nonzero"/></g><path fill="#000000" d="M 54.550781 86.414062 C 54.550781 86.671875 54.5 86.921875 54.402344 87.160156 C 54.304688 87.398438 54.164062 87.609375 53.980469 87.789062 C 53.796875 87.972656 53.585938 88.113281 53.347656 88.210938 C 53.109375 88.308594 52.859375 88.359375 52.601562 88.359375 C 52.34375 88.359375 52.09375 88.308594 51.855469 88.210938 C 51.613281 88.113281 51.402344 87.972656 51.222656 87.789062 C 51.039062 87.609375 50.898438 87.398438 50.796875 87.160156 C 50.699219 86.921875 50.648438 86.671875 50.648438 86.414062 C 50.648438 86.15625 50.699219 85.910156 50.796875 85.671875 C 50.898438 85.433594 51.039062 85.222656 51.222656 85.039062 C 51.402344 84.855469 51.613281 84.71875 51.855469 84.617188 C 52.09375 84.519531 52.34375 84.46875 52.601562 84.46875 C 52.859375 84.46875 53.109375 84.519531 53.347656 84.617188 C 53.585938 84.71875 53.796875 84.855469 53.980469 85.039062 C 54.164062 85.222656 54.304688 85.433594 54.402344 85.671875 C 54.5 85.910156 54.550781 86.15625 54.550781 86.414062 Z M 54.550781 86.414062 " fill-opacity="1" fill-rule="nonzero"/><path fill="#000000" d="M 24.71875 41.726562 C 24.71875 41.996094 24.664062 42.253906 24.5625 42.503906 C 24.457031 42.753906 24.3125 42.972656 24.121094 43.164062 C 23.929688 43.355469 23.707031 43.5 23.460938 43.605469 C 23.210938 43.707031 22.949219 43.757812 22.679688 43.757812 C 22.410156 43.757812 22.148438 43.707031 21.898438 43.605469 C 21.648438 43.5 21.429688 43.355469 21.238281 43.164062 C 21.046875 42.972656 20.898438 42.753906 20.796875 42.503906 C 20.691406 42.253906 20.640625 41.996094 20.640625 41.726562 C 20.640625 41.457031 20.691406 41.199219 20.796875 40.949219 C 20.898438 40.699219 21.046875 40.480469 21.238281 40.289062 C 21.429688 40.101562 21.648438 39.953125 21.898438 39.851562 C 22.148438 39.746094 22.410156 39.695312 22.679688 39.695312 C 22.949219 39.695312 23.210938 39.746094 23.460938 39.851562 C 23.707031 39.953125 23.929688 40.101562 24.121094 40.289062 C 24.3125 40.480469 24.457031 40.699219 24.5625 40.949219 C 24.664062 41.199219 24.71875 41.457031 24.71875 41.726562 Z M 24.71875 41.726562 " fill-opacity="1" fill-rule="nonzero"/></svg>