<?xml version="1.0" encoding="UTF-8"?>
<svg id="Outline" xmlns="http://www.w3.org/2000/svg" version="1.1" viewBox="0 0 64 64">
  <!-- Generator: Adobe Illustrator 29.0.0, SVG Export Plug-In . SVG Version: 2.1.0 Build 186)  -->
  <path d="M48.51465,10.14258s-4.99189-2.99513-5.00008-3.00005c-.13474-.08084-.35445-.14253-.51457-.14253h-12c-.55225,0-1,.44775-1,1s.44775,1,1,1h9.58594l-8.58594,8.58594-8.58594-8.58594h3.58594c.55225,0,1-.44775,1-1s-.44775-1-1-1c0,0-5.98869,0-6.0001,0-.16409,0-.37152.0573-.51454.14258l-5,3c-.44775.26855-.61328.8374-.37988,1.30469l7,14c.16943.33887.51562.55273.89453.55273s.7251-.21387.89453-.55273c.0672-.1344.14801-.25983.22144-.3902l2.83203,3.25696-2.93872,21.55072c-.0459.33643.08203.67334.33984.89453l7,6c.1875.16064.41895.24072.65088.24072s.46338-.08008.65088-.24072l7-6c.25781-.22119.38574-.55762.33984-.89404l-1.35986-10c-.07422-.54736-.57666-.93457-1.12549-.85596-.54736.07422-.93066.57812-.85596,1.12549l1.28613,9.46045-5.93555,5.08789-5.93555-5.08789,2.80859-20.59521h6.25391l.97217,7.13477c.07471.54688.58301.92773,1.12549.85596.54736-.07422.93066-.57861.85596-1.12549l-1.02869-7.55109,2.83215-3.25708c.07343.13037.15424.2558.22144.3902.16943.33887.51562.55273.89453.55273s.7251-.21387.89453-.55273l7-14c.2334-.46729.06787-1.03613-.37988-1.30469ZM17.30859,11.38086l3.53662-2.12158,9.24609,9.24609-1.06543.30469c-2.39258.68311-4.48047,2.15137-5.93604,4.1333l-5.78125-11.5625ZM35.54443,27h-7.08887l-3.13763-3.60828c1.13818-1.2511,2.60504-2.18677,4.25726-2.65881l2.4248-.69293,2.42529.69293c1.65186.47205,3.11871,1.40771,4.25684,2.65875l-3.1377,3.60834ZM40.91016,22.94336c-1.45557-1.98193-3.54346-3.4502-5.93555-4.1333l-1.06592-.30469,9.24609-9.24609,3.53662,2.12158-5.78125,11.5625Z"/>
  <path d="M34,48h-4c-.55225,0-1,.44775-1,1s.44775,1,1,1h4c.55225,0,1-.44775,1-1s-.44775-1-1-1Z"/>
  <path d="M34,44h-4c-.55225,0-1,.44775-1,1s.44775,1,1,1h4c.55225,0,1-.44775,1-1s-.44775-1-1-1Z"/>
</svg>