<svg id="Capa_1" enable-background="new 0 0 512 512" height="512" viewBox="0 0 512 512" width="512" xmlns="http://www.w3.org/2000/svg"><g><g><g><path d="m493.63 137.645c-.142.245.16-.229 0 0z"/><path d="m474.733 56.664c-11.041 0-21.326-5.46-27.512-14.604-17.771-26.271-47.288-41.978-78.995-42.056-.024-.001-23.26-.004-23.26-.004-40.046 0-72.626 32.579-72.626 72.625v23.507c0 24.747 17.082 45.572 40.071 51.324-6.158 17.641-17.166 33.441-31.735 45.258l-24.421 19.807c-4.29 3.479-4.946 9.776-1.468 14.065 1.977 2.438 4.862 3.701 7.772 3.701 2.213 0 4.44-.73 6.293-2.233l24.421-19.807c18.031-14.624 31.518-34.338 38.74-56.318 23.363 7.409 49.275 11.565 75.883 12.154 10.95 20.967 16.329 44.402 15.579 68.105-.803 25.41-8.608 50.07-22.573 71.313-9.729 14.799-11.563 33.432-4.91 49.843l46.179 113.899c2.272 5.604 1.639 11.694-1.74 16.71s-8.785 7.893-14.833 7.893c-6.114 0-11.738-3.07-15.044-8.213l-58.122-90.42c-1.607-2.5-4.243-4.155-7.192-4.519-2.944-.358-5.908.606-8.072 2.643l-25.302 23.807c0-.118.009-.235.009-.353 0-43.71-35.561-79.271-79.271-79.271-5.522 0-10 4.478-10 10s4.478 10 10 10c32.682 0 59.271 26.589 59.271 59.271 0 6.142-.924 12.135-2.745 17.889h-25.552c-5.522 0-10 4.478-10 10s4.478 10 10 10h71.107c10.841 0 19.66 8.819 19.66 19.659 0 10.841-8.819 19.66-19.66 19.66h-81.175c-61.547 0-111.619-50.072-111.619-111.619 0-35.462 17.085-69.136 45.703-90.077l9.601-7.026c4.456-3.262 5.425-9.519 2.163-13.976-3.261-4.456-9.521-5.426-13.976-2.163l-9.6 7.025c-33.745 24.693-53.892 64.4-53.892 106.217 0 6.659.501 13.202 1.46 19.598-31.065-13.55-58.098-45.159-74.191-87.728-3.633-9.607-13.25-15.033-23.403-13.201-10.139 1.834-17.247 10.572-17.285 20.816 0 82.086 66.487 149.216 148.436 149.81 24.063 26.011 58.461 42.325 96.603 42.325h81.174c21.869 0 39.66-17.791 39.66-39.66 0-3.478-.454-6.852-1.299-10.069l20.684 32.177c7.004 10.895 18.917 17.398 31.868 17.398 12.623 0 24.369-6.25 31.421-16.719s8.43-23.702 3.688-35.398l-46.179-113.899c-4.185-10.319-3.03-22.036 3.088-31.342 15.992-24.328 24.931-52.568 25.851-81.668.749-23.677-3.84-47.121-13.345-68.66h14.153c20.427 0 38.699-10.744 49.357-26.516 6.105-9.316 9.897-20.793 9.897-32.738v-19.448c-.001-15.877-12.918-28.794-28.795-28.794zm-446.26 263.249c.002-.457.003-1.03.844-1.181.849-.155.972.158 1.137.593 10.217 27.026 24.855 50.849 42.333 68.891 16.674 17.212 36.03 29.229 56.28 35.038 3.077 8.906 7.079 17.385 11.9 25.315-63.402-8.37-112.494-63.006-112.494-128.656zm306.211 112.768h-12.27l19.697-18.534 17.698 27.532c-6.846-5.62-15.598-8.998-25.125-8.998zm-9.437-303.642c-18.146 0-32.907-14.762-32.907-32.907v-23.507c0-29.018 23.608-52.625 52.626-52.625h13.188v76.132c0 18.145-14.762 32.907-32.907 32.907zm158.28-24.133c0 5.133-1 10.034-2.8 14.532l-18.391-7.975c-5.066-2.194-10.955.13-13.153 5.196-2.197 5.067.13 10.956 5.196 13.153l13.975 6.06c-6.654 5.186-15.009 8.287-24.08 8.287h-29.798c-19.655 0-38.94-2.09-57.014-6.101 12.571-9.682 20.693-24.87 20.693-41.927v-75.441c21.195 2.863 40.331 14.584 52.502 32.576 9.911 14.65 26.389 23.397 44.077 23.397 4.849 0 8.794 3.945 8.794 8.794v19.449z"/></g><circle cx="227.599" cy="248.624" r="10"/><circle cx="408.019" cy="78.032" r="10"/></g></g></svg>