<?xml version="1.0" encoding="UTF-8"?>
<svg xmlns="http://www.w3.org/2000/svg" version="1.1" viewBox="0 0 64 64">
  <!-- Generator: Adobe Illustrator 28.7.1, SVG Export Plug-In . SVG Version: 1.2.0 Build 142)  -->
  <g>
    <g id="Outline">
      <g>
        <path d="M42.28223,37.81934c-1.67773-3.14258-4.62695-5.32959-8.0918-6.00146-.54297-.10156-1.06689.25-1.17236.7915-.10498.54248.24951,1.06689.7915,1.17236,2.87109.55615,5.31592,2.37109,6.70654,4.97607,1.09814,2.07568,2.72168,3.69385,4.31396,5.13477,1.37891,1.24365,2.16992,3.0249,2.16992,4.88721,0,.97803-.21045,1.92188-.62549,2.80566-1.23975,2.64453-4.3916,3.9707-7.34424,3.08154-.13379-.0376-.28027-.13086-.44629-.29736-1.42578-1.4126-3.66357-1.60693-5.32227-.4624-.01611.01123-.03271.02393-.0498.03711-.73877.49268-1.72314.48486-2.46289-.02686-1.62061-1.11914-3.97803-.89307-5.32178.45117-.1626.15625-.32373.26221-.45459.30322-3.1416.94189-6.46826-.63379-7.56201-3.58203-.27246-.75293-.41064-1.53027-.41064-2.31006,0-1.8623.79102-3.64355,2.1709-4.88818,1.59131-1.43994,3.21484-3.05811,4.31152-5.13086,1.39209-2.60791,3.83691-4.42285,6.70801-4.979.54199-.10547.89648-.62988.7915-1.17236-.10547-.54199-.62988-.89551-1.17236-.7915-3.46484.67188-6.41406,2.85889-8.09326,6.00439-.95361,1.80225-2.43164,3.26904-3.88623,4.58496-1.79834,1.62256-2.83008,3.94531-2.83008,6.37256,0,1.0127.17822,2.01855.53271,2.99805,1.4624,3.94141,5.85986,6.05371,10.02539,4.80664.44238-.13818.86475-.39844,1.26904-.7876.70752-.70801,1.93311-.82373,2.78467-.23389,1.43555.9917,3.35693.99023,4.77979-.00244.01465-.00977.0293-.021.04443-.0332.86279-.56982,2.00928-.46289,2.76611.28906.37646.37695.82178.64551,1.26904.771.80176.24121,1.61523.35693,2.41699.35645,3.08057,0,5.98193-1.70361,7.29688-4.50879.54053-1.15137.81494-2.38086.81494-3.65527,0-2.42725-1.03174-4.75-2.8291-6.37158-1.45557-1.31689-2.93359-2.78369-3.88867-4.58887Z" fill="#010101"/>
        <path d="M25.25146,39.69922c-1.25537,2.36523-3.10352,4.19678-4.74609,5.67676-.95654.86182-1.50537,2.10205-1.50537,3.40137,0,.55566.09619,1.09619.28516,1.60742.69727,1.88379,2.50977,2.55225,3.8501,2.55225.2417,0,.48291-.02002.71973-.05908.18018-.03027.34912-.10889.48779-.22754,1.94727-1.6709,4.93701-1.93604,7.15088-.63379.31299.18506.70166.18359,1.01465-.00049.94775-.55859,2.03223-.854,3.13623-.854,1.49463,0,2.88965.51807,4.03418,1.49805.13721.11719.30371.19531.48193.22607.24414.0415.4917.0625.74072.0625,1.26953,0,2.89893-.58057,3.66504-2.21045.2876-.61328.43359-1.27295.43359-1.96094,0-1.29932-.54834-2.53906-1.50439-3.40137-1.64258-1.47949-3.49121-3.31104-4.74707-5.67676-1.33936-2.52393-3.92529-4.0918-6.74854-4.0918s-5.40918,1.56787-6.74854,4.0918ZM32,37.60742c2.08154,0,3.99023,1.16064,4.98193,3.0293,1.40186,2.64111,3.40283,4.62891,5.17432,6.2251.53613.4834.84375,1.18164.84375,1.91553,0,.39209-.08203.7666-.24365,1.11133-.47461,1.00879-1.62842,1.06006-1.85498,1.06006-.05371,0-.10742-.00195-.16113-.00537-1.46533-1.1665-3.2207-1.78125-5.0957-1.78125-1.26758,0-2.51611.29443-3.64453.85596-2.77295-1.37598-6.29395-1.00684-8.71729.91455-.04883.00293-.09814.00439-.14746.00439-.15479,0-1.52588-.03516-1.97461-1.24658-.10645-.28857-.16064-.5957-.16064-.91309,0-.73389.30762-1.43213.84424-1.91553,1.77197-1.59668,3.77246-3.58496,5.17383-6.2251.9917-1.86865,2.90039-3.0293,4.98193-3.0293Z" fill="#010101"/>
        <path d="M38.67285,28.92529c.1626.01904.32471.02832.48682.02832,3.49902,0,6.70459-4.34521,7.42188-10.20947.47852-3.91211-.26953-7.56104-2.00146-9.76123-.89551-1.13721-2.0166-1.81299-3.24219-1.95459-3.6875-.43652-7.1582,4.0459-7.90869,10.18115-.47852,3.9126.27002,7.56201,2.00195,9.76172.89551,1.13672,2.01611,1.8125,3.2417,1.9541ZM35.41455,17.45264c.57373-4.69141,3.02051-8.45312,5.43018-8.45312.08789,0,.17578.00537.26367.01514.69434.08057,1.3335.48584,1.8999,1.20557,1.38867,1.76367,1.99707,4.93652,1.58789,8.28076-.59424,4.86279-3.18359,8.71729-5.69385,8.43799-.69434-.08057-1.3335-.48584-1.8999-1.20508-1.38818-1.76367-1.99707-4.93701-1.58789-8.28125Z" fill="#010101"/>
        <path d="M55.75684,26.74365c-.73047-1.11328-1.72363-1.82373-2.87158-2.05518-3.11328-.63037-6.31689,2.43799-7.28711,6.98486-.57617,2.7002-.2124,5.39111.97363,7.19824.73047,1.11328,1.72363,1.82373,2.87158,2.05518.27246.05518.54492.08203.81738.08203,2.84131-.00049,5.58447-2.91797,6.46973-7.06689.57617-2.7002.2124-5.39111-.97363-7.19824ZM54.77441,33.5249c-.71338,3.3457-2.97363,5.84277-4.93555,5.44141-.77393-.15576-1.29443-.73438-1.59473-1.19189-.88574-1.34961-1.1499-3.52734-.68994-5.68408.66357-3.11035,2.66357-5.48291,4.51807-5.48291.14014,0,.27979.01367.41748.0415.77393.15576,1.29443.73438,1.59473,1.19189.88574,1.34961,1.1499,3.52734.68994,5.68408Z" fill="#010101"/>
        <path d="M17.5625,19.71875c.0874.54541.60107.91748,1.146.82861.54541-.0874.91602-.60059.82861-1.146-.04785-.29883-.09619-.59717-.13428-.90234-.40723-3.34424.20068-6.51611,1.58691-8.27734.56689-.7207,1.2085-1.12695,1.90625-1.2085,2.49121-.29443,5.09912,3.57324,5.69141,8.43799.4082,3.35156-.20166,6.52686-1.59131,8.28711-.56592.71631-1.20459,1.11963-1.8999,1.19824-1.54199.17676-3.29736-1.36475-4.46582-3.93115-.22998-.50244-.82324-.72412-1.32471-.49561-.50244.229-.72461.82178-.49561,1.32471,1.47705,3.24414,3.69873,5.11768,6.01904,5.11768.16406,0,.32861-.00928.49365-.02832,1.22559-.13916,2.34717-.81201,3.24268-1.94629,1.73438-2.19629,2.48486-5.84814,2.00732-9.76855-.74805-6.13965-4.22412-10.62061-7.90869-10.18213-1.22803.14307-2.35059.81982-3.24609,1.95801-1.729,2.19678-2.47705,5.84424-2,9.75928.0415.33154.09277.65332.14453.97461Z" fill="#010101"/>
        <path d="M17.42822,38.87158c1.18604-1.80713,1.5498-4.49805.97363-7.19824-.97021-4.5459-4.17383-7.61328-7.28711-6.98535-1.14795.23193-2.14111.94238-2.87158,2.05566-1.18604,1.80713-1.5498,4.49805-.97363,7.19824.88525,4.14941,3.62842,7.06738,6.46973,7.06689.27197,0,.54541-.02686.81738-.08154,1.14795-.23193,2.14111-.94238,2.87158-2.05566ZM15.75586,37.77441c-.30029.45752-.8208,1.03613-1.59473,1.19238-1.95752.39941-4.22119-2.09521-4.93555-5.44189-.45996-2.15674-.1958-4.33447.68994-5.68408.30029-.45752.8208-1.03613,1.59473-1.19238.13818-.02783.27734-.04102.41797-.04102,1.854,0,3.854,2.37256,4.51758,5.48291.45996,2.15674.1958,4.33447-.68994,5.68408Z" fill="#010101"/>
      </g>
    </g>
  </g>
</svg>